<?xml version="1.0" encoding="utf-8"?>
<!-- Generator: Adobe Illustrator 24.3.0, SVG Export Plug-In . SVG Version: 6.00 Build 0)  -->
<svg version="1.1" id="Layer_1" xmlns="http://www.w3.org/2000/svg" xmlns:xlink="http://www.w3.org/1999/xlink" x="0px" y="0px"
	 viewBox="0 0 217.8 76.1" style="enable-background:new 0 0 217.8 76.1;" xml:space="preserve">
<style type="text/css">
	.st0{fill:#282F30;stroke:#282F30;stroke-width:0.5;stroke-linecap:round;stroke-linejoin:round;stroke-miterlimit:10;}
	.st1{fill:#DB5E73;}
	.st2{fill:#231F20;}
	.st3{fill:#020202;}
	.st4{fill:none;stroke:#020202;stroke-width:0.629;stroke-linecap:round;stroke-miterlimit:10;}
</style>
<g>
	<g>
		<path class="st0" d="M70.4,46.9c-1.5-0.5-3.9-0.8-7.2-0.8h-4.6v22h7c2.7,0,4.9-0.4,6.4-1.2c1.5-0.8,2.8-2,3.7-3.7
			c0.9-1.7,1.4-3.6,1.4-5.8c0-2.5-0.6-4.8-1.8-6.6C74.2,49,72.5,47.6,70.4,46.9z M60.9,48.4h1.5c3.1,0,5.4,0.2,6.7,0.6
			c1.8,0.5,3.2,1.6,4.2,3c1,1.5,1.5,3.3,1.5,5.4c0,2-0.5,3.7-1.4,5.1c-0.9,1.4-2.2,2.3-3.8,2.9c-1.2,0.4-3.3,0.6-6.3,0.6h-2.5V48.4z
			"/>
		<path class="st0" d="M89.5,46.1L79.1,68L79,68.1h2.6l3.4-7.2h9.3l3.4,7.2l0,0h2.5l-10.3-22H89.5z M93.4,58.7h-7.2l3.6-7.7
			L93.4,58.7z"/>
		<polygon class="st0" points="101.1,48.4 106,48.4 106,68.1 108.3,68.1 108.3,48.4 113.2,48.4 113.2,46.1 101.1,46.1 		"/>
		<path class="st0" d="M124.4,46.1L114,68l-0.1,0.1h2.6l3.4-7.2h9.3l3.4,7.2l0,0h2.5l-10.3-22H124.4z M128.3,58.7H121l3.6-7.7
			L128.3,58.7z"/>
		<polygon class="st0" points="144.1,48.4 149,48.4 149,68.1 151.4,68.1 151.4,48.4 156.3,48.4 156.3,46.1 144.1,46.1 		"/>
		<path class="st0" d="M169.5,45.6c-2,0-4,0.5-5.7,1.5c-1.8,1-3.2,2.4-4.2,4.2c-1,1.8-1.5,3.8-1.5,5.9c0,3.2,1.1,5.9,3.4,8.1
			c2.2,2.2,5,3.4,8.3,3.4c3.2,0,6-1.1,8.2-3.4c2.2-2.2,3.4-5,3.4-8.2c0-3.2-1.1-6-3.4-8.2C175.6,46.7,172.8,45.6,169.5,45.6z
			 M178.8,57.1c0,1.7-0.4,3.3-1.2,4.7c-0.8,1.4-1.9,2.5-3.4,3.3c-1.4,0.8-3,1.2-4.7,1.2c-2.5,0-4.7-0.9-6.5-2.7
			c-1.8-1.8-2.7-4-2.7-6.5c0-1.7,0.4-3.3,1.2-4.7c0.8-1.4,1.9-2.5,3.4-3.4c1.4-0.8,3-1.3,4.6-1.3c1.6,0,3.2,0.4,4.6,1.3
			c1.5,0.8,2.6,2,3.4,3.3C178.4,53.8,178.8,55.4,178.8,57.1z"/>
		<path class="st0" d="M201.7,46.1L191.3,68l-0.1,0.1h2.6l3.4-7.2h9.3l3.4,7.2l0,0h2.5l-10.3-22H201.7z M205.6,58.7h-7.2L202,51
			L205.6,58.7z"/>
		<rect x="215.2" y="46.1" class="st0" width="2.3" height="22"/>
	</g>
</g>
<g>
	<g>
		<path class="st1" d="M32.3,58.1c-0.6,0.1-1.1,0.3-1.6,0.5c-0.5,0.2-1,0.3-1.5,0.5c-1,0.4-2,0.8-3.1,1.2c-2,0.8-4,1.4-6,1.9
			c-0.6,0.2-1.2,0.4-1.8,0.6c0,0,0,0,0,0c-0.2-0.2-0.5-0.4-0.7-0.7c-0.2-0.1-0.3-0.3-0.5-0.4c0.2-0.6-0.1-1.4-0.2-2
			c-0.2-0.7-0.3-1.4-0.4-2.1c-0.1-0.7-0.3-1.4-0.4-2c0,0,0,0,0-0.1c0-0.1,0-0.1,0-0.2c0,0.1,0,0,0-0.1c0-0.1,0-0.2,0-0.3
			c0-0.1,0-0.2,0-0.4c0-0.3,0-0.6,0-0.8c0-0.5,0-1.1,0.1-1.6c0.1-1.1,0.1-2.1,0.3-3.2c0.1-1,0.2-1.9,0.6-3c0.2-0.6,0.4-1.1,0.5-1.8
			c0-0.1,0-0.2,0-0.3c0.6-0.3,1.2-0.5,1.7-0.8c0.9-0.5,1.8-1,2.7-1.5c0.2-0.1,0.4-0.2,0.5-0.2c0.9-0.4,1.8-0.8,2.7-1.2
			c0.4-0.2,0.9-0.5,1.3-0.7c0.5-0.3,1-0.6,1.2-1.2c0.1-0.2,0.1-0.5,0-0.6c0,0,0,0,0,0c0.2-0.4-0.1-0.8-0.5-0.7c0,0-0.1,0-0.1,0
			c0-0.2-0.1-0.4-0.3-0.5c0,0,0,0,0,0c0.3-0.2,0.6-0.4,0.9-0.6c0.4-0.3,0-0.9-0.4-0.9c-0.6,0-1.2,0.1-1.8,0.2
			c-0.2-0.4-0.5-0.7-0.8-1c-0.5-0.4-1.1-0.7-1.8-0.9c-0.5-0.1-1-0.3-1.4-0.3c-0.6-0.3-1.2-0.5-1.9-0.5c0-0.1,0-0.2-0.1-0.3
			c-0.1-0.7-0.3-1.3-0.4-2c-0.1-0.3-0.1-0.7-0.2-1c-0.1-0.2-0.1-0.4-0.2-0.5c0.3-0.2,0.5-0.4,0.6-0.7c0-0.1,0-0.2,0-0.3
			c0.6-0.1,1.1-0.3,1.7-0.5c1.6-0.5,3.2-1.1,4.7-1.8c0.1-0.1,0.3-0.2,0.4-0.3c0.5-0.1,0.9-0.4,1.2-0.8c0.1-0.2,0.2-0.4,0.2-0.6
			c0.1-0.1,0.2-0.2,0.2-0.3c0.3-0.4,0.5-0.9,0.7-1.4c0.1-0.3,0.3-0.6,0.4-0.9c0.2-0.4,0.3-0.9,0.4-1.4c0.3-1.2,0.1-2.5-0.2-3.7
			c-0.2-1.1-0.4-2.2-0.7-3.3c-0.2-1.1-0.5-2.2-0.9-3.3c-0.2-0.6-0.5-1.2-0.7-1.8c-0.3-0.6-0.5-1.2-0.8-1.8c-0.4-0.6-1.2-0.2-1.1,0.4
			c0.1,0.5,0.3,1,0.4,1.6c0.1,0.5,0.2,1.1,0.4,1.6c0.1,0.5,0.2,1.1,0.3,1.6c0.1,0.5,0.2,1,0.3,1.5c0.2,1.1,0.3,2,0.5,3.1
			c0.1,1,0.2,2.1,0.2,3.2c0,0.1,0,0.3,0,0.4c0,0.1,0,0.1,0,0.2c0,0,0,0,0,0.1c0,0.1-0.1,0.3-0.1,0.4c0,0,0,0.1,0,0.1
			c-0.2,0.3-0.3,0.6-0.5,0.8c-0.1,0.2-0.2,0.3-0.3,0.5c-1.8,0.7-3.8,1.1-5.7,1.6c-2.3,0.5-4.6,0.9-6.9,1.4c-0.6,0.1-1.3,0.2-1.9,0.3
			c-0.5,0.1-0.9,0.2-1.4,0.3c0-0.3,0-0.5,0-0.8c-0.1-0.7-0.4-1.4-0.7-2c-0.5-1.2-1-2.3-1.4-3.6c-0.5-1.4-0.9-2.9-1.1-4.4
			c-0.1-0.7-0.2-1.4-0.3-2.1c0-0.2,0-0.4-0.1-0.6c0-0.2-0.1-0.3-0.1-0.4c0.2-0.1,0.3-0.3,0.4-0.5c0,0,0,0,0,0c0,0,0-0.1,0-0.1
			c0,0,0-0.1,0-0.1c0-0.1,0-0.2,0-0.3c0-0.1,0-0.2,0-0.3c0-0.1,0-0.2,0-0.2c0,0,0-0.1,0-0.1c0,0,0-0.1,0.1-0.1
			c0.1-0.2,0.1-0.3,0.1-0.5c0-0.1,0-0.2,0-0.3c0.1-0.1,0.1-0.1,0.2-0.2c0,0,0.2-0.2,0.2-0.1C7.7,7.8,7.8,7.7,8,7.6
			c0.8-0.5,1.7-1,2.6-1.3c1-0.4,1.9-0.7,2.9-1c1-0.2,1.9-0.3,2.8-0.4c0.6-0.1,1.2-0.2,1.8-0.3c0.2-0.1,0.5-0.1,0.7-0.1
			c0.3,0,0.8,0.1,1.2,0c0.9-0.3,0.6-1.9-0.4-2c-0.2,0-0.5,0-0.7,0c-0.4-0.2-0.7-0.2-1.1-0.2c-0.4,0-0.8,0-1.2,0
			c-0.8,0.1-1.6,0.2-2.5,0.3c-0.7,0.1-1.5,0.2-2.2,0.5c-0.8,0.3-1.6,0.4-2.4,0.7c-1.4,0.5-3,1-4.2,1.9C4.6,6.2,4,6.7,3.5,7.4
			C3,8,2.8,8.9,2.4,9.6c-0.5,0.7-1,1.5-1.4,2.3c-0.2,0.4-0.4,0.8-0.6,1.2c-0.2,0.4-0.2,0.9-0.1,1.4c0.1,0.2,0.1,0.5,0.3,0.5
			c0,0.3,0.1,0.6,0.2,0.9c0.2,0.7,0.5,1.3,0.7,2c0.7,1.8,1.4,3.7,2.1,5.5C3.7,23.7,3.9,24,4,24.4c0.4,1,0.7,1.9,1.2,2.7
			c0.5,0.9,1,1.7,1.5,2.5c0.2,0.3,0.5,0.5,0.9,0.4c0.6,0.6,1.5,0.8,2.4,0.8c1.1,0,2.2-0.2,3.3-0.4c1-0.2,1.9-0.5,2.9-0.8
			c0,0.3,0.1,0.5,0.1,0.8c0.1,0.5,0.2,1.1,0.3,1.6c0.1,0.3,0.1,0.6,0.2,0.9c-0.2,0.1-0.3,0.1-0.4,0.2c-0.4,0.3-0.7,0.6-1.1,0.8
			c-0.6,0.5-1.3,1-1.9,1.5c-0.6,0.5-1.4,1-1.8,1.7c-0.4,0.6-0.6,1.4-0.8,2.1c-0.2,0.7-0.4,1.5-0.6,2.2c-0.1,0.8-0.3,1.7-0.1,2.5
			c0,0.2,0.1,0.4,0.2,0.5c0,1.8,0,3.5,0.3,5.3c0.1,1,0.3,2.1,0.5,3.1c0,0.6,0.1,1.2,0.2,1.7c0.1,0.8,0.3,1.6,0.6,2.4
			c0.1,0.4,0.2,0.8,0.4,1.1c0.2,0.5,0.4,0.9,0.6,1.3c0.2,0.2,0.4,0.4,0.7,0.4c0.3,0.7,0.7,1.4,1.1,2.2c0.3,0.6,0.6,1.2,1,1.7
			c-0.3,0-0.5,0-0.8,0.1c-0.1,0-0.1,0-0.2,0c0-0.1-0.1-0.1-0.2-0.2c-0.2-0.1-0.4-0.1-0.5-0.1c-0.3,0.1-0.4,0.3-0.5,0.6
			c0,0.2,0.1,0.5,0.3,0.7c-0.1,0.3,0,0.6,0.1,0.8c0.1,0.4,0.3,0.7,0.5,1c0.2,0.5,0.6,1,1,1.3c0.1,0.6,0.2,1.2,0.4,1.8
			c0.1,0.4,0.2,0.8,0.2,1.2c0,0.3,0,0.5,0,0.8c0,0.6,0.2,1.3,0.3,1.9c0.1,0.4,0.6,0.7,1,0.6c0.1,0,0.3-0.1,0.4-0.1
			c0.1,0,0.2,0,0.3,0c0,0,0.1,0,0.1,0c0.2,0.3,0.6,0.5,0.9,0.5c0.6,0,1.1-0.5,1.1-1.1c0-1.4-0.1-2.8,0-4.3c0.1-1.1,0.1-2.3-0.1-3.4
			c0.9-0.3,1.8-0.6,2.6-1c-0.1,1.1,0,2.3,0,3.4c0.1,1.4,0.1,3,0.7,4.4c0.1,0.3,0.5,0.5,0.8,0.3c0.1,0,0.1,0.1,0.2,0.1
			c0.4,0.1,0.8-0.1,1-0.5c0.1-0.1,0.1-0.2,0.2-0.3c0,0,0,0,0,0c0.1-0.3,0.1-0.6,0.1-1c0.3-1.1,0.5-2.3,0.9-3.4
			c0.5-1.5,0.9-3,1.3-4.5c0.1-0.3,0-0.6-0.1-0.9c0.5-0.3,0.9-0.6,1.4-0.9c0.6-0.4,1.1-0.8,1.6-1.2c0.5-0.4,1-0.8,1.6-0.9
			c0.2,0,0.3-0.3,0.3-0.5c0.1,0,0.2-0.1,0.2-0.1C33.1,58.7,32.8,58,32.3,58.1z M24,35.6C24,35.6,24,35.6,24,35.6
			C24,35.6,24,35.6,24,35.6C24,35.6,24,35.6,24,35.6z M4.8,9.6c0,0.1,0,0.2,0,0.3c0-0.1-0.1-0.1-0.1-0.2C4.7,9.7,4.7,9.7,4.8,9.6z
			 M4.8,10.8C4.8,10.8,4.8,10.8,4.8,10.8c0-0.1,0-0.2,0-0.4c0-0.1,0-0.1,0-0.2c0,0,0,0,0,0c0,0,0,0,0,0.1
			C4.8,10.6,4.8,10.7,4.8,10.8z"/>
		<path class="st1" d="M9.4,68.2c0-0.1,0-0.2,0-0.3c0-0.4-0.1-0.8-0.2-1.1c-0.1-0.1-0.1-0.2-0.2-0.3c0.1,0.1,0.1,0.1,0,0
			c0-0.1-0.1-0.2-0.2-0.3c-0.2-0.4-0.4-0.7-0.5-1.1c-0.2-0.4-0.3-0.7-0.4-1c-0.2-0.5-0.2-0.7-0.4-1.2c0-0.1,0-0.1,0-0.2
			c-0.1-0.4-0.2-0.7-0.3-1.1c-0.2-1.3-0.3-2.6-0.2-3.9c0-2,0.2-3.9,0.5-5.8c0.2-1.9,0.5-3.9,0.8-5.8c0.4-2.1,0.9-4.2,1.5-6.2
			c0.2-0.6-0.6-1-0.9-0.4c-0.7,1.8-1.2,3.7-1.6,5.7c-0.2,1-0.3,1.9-0.6,2.9c-0.2,1-0.4,2-0.6,2.9c-0.4,2.1-0.7,4.2-0.7,6.3
			c0,0.8,0,1.5,0,2.3c-0.1,0.7-0.2,1.4-0.1,2.1c0,0.6,0.1,1.2,0.2,1.7c0.1,0.6,0.3,1.1,0.5,1.6c0,0.1,0.1,0.1,0.1,0.2
			c0,0.2,0.1,0.4,0.2,0.6c0.1,0.3,0.2,0.6,0.3,0.9c0,0.1,0.1,0.2,0.1,0.3c0,0.1,0.1,0.3,0.1,0.4c0.3,0.7,0.5,1.3,1.2,1.6
			c0.1,0.1,0.3,0.1,0.4,0.1C8.7,69.5,9,69.7,9.3,70c0.4,0.3,0.9-0.3,0.6-0.8C9.7,68.9,9.6,68.5,9.4,68.2z"/>
		<path class="st1" d="M53.2,25.6c-0.5-0.4-1.4-0.6-2-0.2c-0.3,0.2-0.5,0.4-0.8,0.6c-0.1,0.1-0.2,0.3-0.4,0.4
			c-0.2,0.2-0.4,0.4-0.5,0.6c0,0,0,0,0,0c0,0,0,0,0,0c-0.1,0.1-0.2,0.2-0.3,0.3c-0.6,0.7-1.2,1.4-1.7,2.1c-0.4,0.5-0.7,1-1.1,1.5
			c-0.2-0.8-1.4-1.1-1.9-0.3c-0.1,0.2-0.2,0.4-0.2,0.6c0,0.2,0,0.1,0,0.1c0,0,0,0,0,0.1c-0.1,0.2-0.1,0.4-0.2,0.6
			c-0.1,0.4-0.3,0.8-0.5,1.2c-0.3,0.8-0.6,1.7-0.9,2.5c-0.3,0.8-0.5,1.7-0.7,2.5c-0.1,0.4-0.3,0.8-0.4,1.3c-0.1,0.2-0.1,0.5-0.1,0.7
			c-0.2,0.5-0.4,1.1-0.6,1.6c-0.2,0.5-0.4,1.1-0.6,1.6c0,0.1-0.1,0.1-0.1,0.2c-0.1,0.2-0.2,0.3-0.3,0.5c-0.3,0.6-0.7,1.2-1,1.8
			c-0.2,0.3-0.4,0.7-0.6,1.1c-0.1,0.1-0.1,0.3-0.1,0.4c0,0,0,0,0,0c-0.2-0.4-0.4-0.7-0.5-1.1c-0.5-0.9-1-1.7-1.5-2.6
			c-0.5-0.8-1.1-1.6-1.7-2.4c-0.3-0.4-0.7-0.8-1-1.2c-0.1-0.1-0.1-0.2-0.2-0.2c0-0.1-0.1-0.1-0.1-0.2c-0.1-0.2-0.3-0.4-0.4-0.5
			c-0.2-0.3-0.4-0.5-0.6-0.8c0.1,0.1-0.1-0.1-0.1-0.2c-0.1-0.1-0.1-0.2-0.2-0.3c-0.2-0.3-0.3-0.3-0.5-0.6c-0.1-0.1-0.1-0.2-0.2-0.3
			c0-0.1,0-0.3-0.1-0.4c-0.1-0.3-0.1-0.7-0.3-1c-0.1-0.3-0.4-0.5-0.6-0.7c-0.3-0.3-0.9-0.3-1.1,0.1c-0.2,0-0.3,0.1-0.4,0.2
			c-0.4,0.4-0.3,0.9-0.1,1.4c0.1,0.1,0.1,0.3,0.2,0.4c0,0,0,0.1,0,0.1c0.1,0.6,0.3,1.1,0.4,1.7c0.3,1.1,0.5,2.2,0.7,3.3
			c0.2,1.1,0.4,2.2,0.7,3.4c0.1,0.6,0.2,1.1,0.4,1.7c0.1,0.3,0.2,0.5,0.3,0.7c0.1,0.3,0.2,0.6,0.4,0.8c0.2,0.3,0.6,0.1,0.7-0.2
			c0.1-0.3,0.1-0.6,0.1-0.8c0-0.3,0-0.6,0-0.8c-0.1-0.6-0.2-1.2-0.3-1.8c-0.2-1.1-0.3-2.2-0.5-3.3c0.1,0.1,0.1,0.2,0.2,0.3
			c1,1.9,2,3.8,3.1,5.7c0.6,1,1.8,2.8,3.3,2.1c0.2-0.1,0.4-0.3,0.4-0.5c0.2,0.1,0.4,0,0.6-0.2c0,0,0.1-0.1,0.1-0.1
			c0.2,0.1,0.5,0.1,0.6-0.2c0.2-0.6,0.4-1.1,0.6-1.6c0.3-0.5,0.4-1.1,0.6-1.7c0.3-0.8,0.6-1.7,1-2.5c0.6-1.1,1.2-2.2,1.8-3.2
			c0.8-1.5,1.7-3.1,2.6-4.6c0.9-1.4,1.9-2.7,3-4.1c0,0,0.1-0.2,0.1-0.2c0-0.1,0.1-0.1,0.1-0.2c0.2-0.2,0.4-0.4,0.5-0.6
			c0.3-0.3,0.6-0.7,0.9-1c0.3-0.3,0.6-0.7,1-1c0.5-0.4,0.9-0.8,1.3-1.2C53.9,26.9,53.7,26.1,53.2,25.6z M33.2,40.2
			C33.2,40.2,33.2,40.2,33.2,40.2C33.1,40.1,33.2,40.2,33.2,40.2z"/>
	</g>
	<g>
		<path class="st2" d="M10.4,11.3c-0.1-0.5-0.2-1.1-0.2-1.7c-0.1-0.5-0.1-1.1-0.1-1.7c0-0.4-0.4-0.7-0.7-0.4C9.2,7.9,9,8.2,8.8,8.5
			C8.7,8.7,8.5,9,8.3,9.2C8.1,9.3,8.1,9.7,8.4,9.7C8.7,9.8,9,9.4,9.2,9.2C9.3,9.1,9.4,9,9.4,9c0,0.3,0,0.5,0.1,0.8
			c0,0.6,0.1,1.2,0.1,1.8C9.7,12,10.5,11.9,10.4,11.3z"/>
		<path class="st2" d="M12,10.7c0.4-0.1,0.6-0.4,0.7-0.8c0.1-0.2,0.1-0.4,0-0.6c0.1,0,0.1-0.1,0.1-0.1c0.2-0.5,0-2.1-0.8-1.8
			c-0.3,0.1-0.6,0.5-0.7,0.8C11.1,8.5,11,9,10.9,9.4C10.9,10,11.1,11.1,12,10.7z M11.6,9.2c0-0.2,0.1-0.4,0.2-0.6
			c0.1-0.1,0.2-0.3,0.3-0.4c0,0.1,0.1,0.2,0.1,0.2c0,0.2,0.1,0.5,0.1,0.7c0,0,0,0,0,0c0,0.3-0.2,0.7-0.4,0.8c0,0-0.2,0.1-0.1,0.1
			c0,0,0-0.2,0-0.2C11.6,9.7,11.6,9.5,11.6,9.2z"/>
		<path class="st2" d="M13.6,9.7c0.2,0.3,0.4,0.7,0.8,0.7c0.4,0,0.7-0.3,0.9-0.6c0.2-0.4,0.1-0.8,0-1.2c-0.1-0.2-0.1-0.4-0.2-0.6
			c0,0,0,0,0,0c0.1-0.1,0.1-0.1,0.1-0.2C15,7,14,6.8,13.5,7.4c-0.2,0.3-0.2,0.8-0.2,1.2C13.4,9,13.4,9.4,13.6,9.7z M14,8.2
			c0-0.2,0-0.6,0.3-0.5c0.1,0,0.2,0.1,0.3,0.2c0,0,0,0,0,0c0.1,0.2,0.1,0.4,0.1,0.6c0,0.2,0.1,1.4-0.3,1.1C14,9.3,14,8.7,14,8.2z"/>
		<path class="st2" d="M16.6,7.8c0,0,0.1-0.1,0.1-0.1C16.9,7.4,17,7.2,17.2,7c0,0,0,0.1,0,0.1c0,0.3,0.1,0.5,0.1,0.8
			c0,0.3,0.1,0.5,0.1,0.8c0,0.3,0,0.5,0.2,0.7c0.2,0.1,0.4,0.1,0.5-0.1c0.1-0.2,0.1-0.5,0-0.7C18,8.3,18,8.1,17.9,7.8
			c-0.1-0.5-0.3-1.1-0.2-1.6c0-0.3-0.4-0.3-0.6-0.1c-0.3,0.5-0.6,1-0.9,1.4C16.1,7.7,16.4,7.9,16.6,7.8z"/>
		<path class="st2" d="M18.4,7.3c0.3-0.2,0.5-0.4,0.7-0.7c0,0.4,0,0.8,0,1.2c0,0.4,0.1,1.4,0.7,1c0.1,0,0.1-0.2,0.1-0.3
			c0-0.1,0-0.4,0-0.6c0-0.3-0.1-0.5-0.1-0.8c-0.1-0.5-0.1-1-0.3-1.5c-0.1-0.3-0.5-0.3-0.6,0c-0.3,0.4-0.6,0.9-0.9,1.4c0,0,0,0,0,0
			C18.1,7.2,18.2,7.4,18.4,7.3z"/>
		<path class="st2" d="M22.5,8c0.2-0.2,0.2-0.5,0.2-0.8C22.9,7.1,23,6.9,23,6.6c0-0.2,0-0.5-0.1-0.7c-0.1-0.4-0.4-0.8-0.8-0.9
			c-1-0.3-1.3,0.8-1.4,1.5c-0.1,0.7,0.1,1.7,0.9,1.9C21.9,8.5,22.3,8.3,22.5,8z M21.2,6.7c0-0.2,0.2-1.3,0.7-1
			c0.2,0.1,0.2,0.5,0.2,0.7c0,0.3,0.1,0.5,0.1,0.8c0,0,0,0,0,0c-0.1,0.3-0.2,0.7-0.6,0.6C21.2,7.7,21.2,7,21.2,6.7z"/>
		<path class="st2" d="M12,15.9c0.2-0.3,0.2-0.7,0.2-1.1c0-0.2-0.1-0.4-0.2-0.5c0-0.1-0.1-0.1-0.1-0.2c0-0.1,0-0.1,0-0.2
			c0-0.1-0.1-0.2-0.2-0.3c0-0.1-0.1-0.1-0.2-0.1c-0.4-0.2-1,0-1.3,0.3c-0.4,0.6-0.4,1.4,0,2c0.2,0.3,0.4,0.4,0.8,0.4
			C11.4,16.2,11.8,16.1,12,15.9z M11.6,15c0,0.2-0.1,0.5-0.3,0.6c-0.1,0.1-0.4,0.1-0.5,0c-0.3-0.3-0.2-0.9-0.1-1.2
			c0.2-0.4,0.4-0.3,0.7-0.2C11.5,14.4,11.6,14.7,11.6,15z"/>
		<path class="st2" d="M14.2,14.9c-0.1-0.4-0.2-0.8-0.3-1.1c-0.1-0.4-0.2-0.8-0.4-1.1c-0.1-0.2-0.5-0.2-0.6,0
			c-0.1,0.3-0.2,0.5-0.3,0.8c-0.1,0.2-0.2,0.4-0.2,0.7c0,0.3,0.3,0.3,0.5,0.1c0.1-0.2,0.2-0.4,0.3-0.6c0.1,0.2,0.1,0.4,0.1,0.7
			c0.1,0.4,0,0.8,0.4,1C14,15.5,14.3,15.1,14.2,14.9z"/>
		<path class="st2" d="M15,12c-0.2,0.2-0.3,0.5-0.4,0.8c0,0.6,0.1,1.4,0.6,1.7c0.6,0.4,1.2,0,1.3-0.7c0.1-0.6-0.2-1.2-0.6-1.6
			c0,0,0,0,0,0c0.2-0.1,0.1-0.4-0.1-0.4c-0.2,0-0.3,0-0.5,0C15.3,11.8,15.1,11.9,15,12z M15.7,12.4c0.1,0.3,0.3,0.6,0.3,1
			c0,0.2-0.1,0.8-0.5,0.5c-0.2-0.2-0.3-0.7-0.3-1c0-0.2,0.2-0.3,0.3-0.4C15.6,12.4,15.7,12.4,15.7,12.4z"/>
		<path class="st2" d="M19.1,12.9C19.1,12.9,19.1,12.8,19.1,12.9c0-0.2,0-0.3,0-0.4c0-0.2,0-0.4-0.1-0.6c-0.1-0.4-0.1-0.8-0.2-1.2
			c0-0.4-0.5-0.4-0.7-0.1c-0.3,0.5-0.7,1-0.8,1.6c0,0.1,0.1,0.3,0.3,0.2c0.1,0,0.1-0.1,0.2-0.1c0,0,0,0,0,0c0.2-0.2,0.4-0.4,0.5-0.6
			c0,0.2,0,0.3,0,0.5c0,0.4-0.1,0.8,0.1,1.1c0.1,0.1,0.3,0.2,0.4,0.1c0,0,0,0,0,0C19.1,13.3,19.2,13.1,19.1,12.9z"/>
		<path class="st2" d="M21.2,11.8c-0.1-0.4-0.2-0.9-0.2-1.4c0-0.3-0.5-0.4-0.7-0.1c-0.1,0.3-0.3,0.6-0.4,0.8
			c-0.1,0.2-0.4,0.4-0.4,0.6c0,0.1,0.1,0.2,0.1,0.2c0.1,0,0.1,0,0.2,0c0,0,0,0,0,0c0.1-0.1,0.2-0.1,0.3-0.2c0.1-0.1,0.2-0.2,0.3-0.3
			c0,0.2,0,0.3,0.1,0.5c0.1,0.5,0.1,1,0.4,1.4c0.2,0.3,0.8,0.1,0.7-0.2C21.5,12.6,21.3,12.2,21.2,11.8z"/>
		<path class="st2" d="M23.5,13.5c0.6-0.4,0.5-1.1,0.4-1.7c0,0,0-0.1,0-0.1c0.1-0.4-0.1-0.8-0.4-1.1c-0.3-0.3-0.7-0.4-1.1-0.2
			c-0.7,0.4-0.6,1.5-0.4,2.2c0.1,0.3,0.2,0.7,0.5,0.9C22.8,13.7,23.2,13.7,23.5,13.5z M22.9,12.9c-0.1-0.1-0.2-0.4-0.2-0.5
			c-0.1-0.2-0.1-0.5-0.1-0.7c0-0.1,0.1-0.5,0.2-0.5c0.1,0,0.2,0.2,0.3,0.3c0.1,0.2,0.2,0.3,0.4,0.4c0,0.3,0,0.6-0.2,0.9
			C23.2,12.9,23,13.1,22.9,12.9z"/>
		<path class="st2" d="M13.4,19c0.1-0.7-0.8-0.9-1.3-0.5c-0.5,0.4-0.6,1.3-0.3,1.9c0.3,0.6,1,0.9,1.5,0.4
			C13.8,20.3,13.6,19.6,13.4,19C13.4,19,13.4,19,13.4,19z M13,19.9c-0.1,0.3-0.4,0.8-0.6,0.4c-0.2-0.3-0.2-0.7-0.1-1
			c0.1-0.3,0.4-0.5,0.6-0.2c0,0,0,0.1,0.1,0.1C13.1,19.4,13.1,19.6,13,19.9z"/>
		<path class="st2" d="M15.8,17.8c-0.1-0.4-0.1-1-0.5-1.3c-0.2-0.2-0.5-0.1-0.6,0.2c-0.1,0.4-0.2,0.8-0.3,1.3
			c-0.1,0.2-0.3,0.7-0.1,0.9c0.1,0.1,0.2,0.1,0.2,0c0,0,0,0,0,0c0,0,0-0.1,0-0.1c0-0.1,0.2-0.2,0.2-0.3c0.1-0.2,0.2-0.3,0.3-0.5
			c0,0.2,0,0.3,0,0.5c0,0.4,0.1,0.9,0.3,1.3c0.2,0.5,0.9,0.2,0.7-0.2C16,18.9,15.9,18.4,15.8,17.8z"/>
		<path class="st2" d="M17.7,16.5c0-0.4-0.6-0.4-0.7,0c-0.2,0.5-0.3,1.1-0.5,1.6c-0.1,0.2,0.1,0.3,0.2,0.3c0,0,0.1,0,0.1,0
			c0.1,0,0.1-0.1,0.1-0.2c0.1-0.1,0.2-0.3,0.3-0.4c0.1,0.4,0.1,0.8,0.2,1.2c0.1,0.7,1.2,0.4,0.9-0.2C18,18,17.8,17.3,17.7,16.5z"/>
		<path class="st2" d="M21.3,16.5c0,0.1,0-0.2,0-0.2c0-0.1-0.1-0.2-0.2-0.3c-0.1-0.2-0.3-0.3-0.5-0.4c-0.4-0.1-0.7-0.1-1,0.2
			c-0.5,0.6-0.3,1.5,0.1,2.1c0.3,0.6,1,0.8,1.6,0.4C21.8,18,21.6,17.1,21.3,16.5C21.3,16.6,21.3,16.6,21.3,16.5z M20.9,17.9
			c-0.3,0.3-0.6,0.1-0.7-0.2c-0.1-0.3-0.3-0.9-0.1-1.2c0.1-0.1,0.2,0,0.3,0.1c0.1,0.1,0.1,0.1,0.2,0.2c0.1,0,0.1,0,0.2,0.1
			c0,0,0.1,0,0.1,0c0,0,0.1,0,0.1,0C21.1,17.2,21.2,17.6,20.9,17.9z"/>
		<path class="st2" d="M24.3,16.2c-0.1-0.3-0.3-0.7-0.4-1c-0.1-0.3-0.5-0.3-0.6,0c-0.2,0.3-0.4,0.8-0.4,1.2c0,0.2,0.2,0.3,0.3,0.2
			c0.1-0.1,0.2-0.2,0.3-0.3c0,0.1,0.1,0.2,0.1,0.3c0.1,0.3,0.1,0.8,0.3,1c0.2,0.3,0.8,0.2,0.8-0.3C24.6,16.9,24.4,16.5,24.3,16.2z"
			/>
	</g>
	<g>
		<g>
			<path class="st2" d="M52.5,5.1c0.3,0.3,0.8,0.3,1.2,0.2c0.4-0.2,0.7-0.5,0.9-0.9c0.1-0.3,0.2-0.6,0.2-0.9c0,0,0.1-0.1,0.1-0.1
				C54.9,3.2,55,3,55,2.8c0-0.2-0.1-0.5-0.3-0.6c-0.3-0.3-0.8-0.3-1.1-0.2c-0.9,0.2-1.4,1-1.4,1.9C52.2,4.3,52.2,4.8,52.5,5.1z
				 M53.6,2.8c0.1,0,0.4-0.1,0.5,0c0.1,0.1,0.1,0.3,0.1,0.4c0,0.1,0.1,0.1,0.1,0.2c-0.1,0.4-0.3,0.7-0.6,1c-0.1,0.1-0.4,0.3-0.6,0.2
				C53,4.4,53,4,53,3.9C52.9,3.4,53.2,3,53.6,2.8z"/>
		</g>
		<g>
			<path class="st2" d="M57.5,4.1c0.4-0.3,0.6-0.7,0.7-1.2c0.3-0.6,0.2-1.3,0-2c-0.1-0.3-0.3-0.7-0.7-0.9c-0.4-0.1-0.8,0-1,0.2
				C56.1,0.6,56.1,1,56,1.4c-0.1,0.5-0.1,1,0,1.6C56.1,3.7,56.7,4.7,57.5,4.1z M56.6,1.4c0-0.3,0.1-0.8,0.5-0.8
				c0.3,0,0.4,0.5,0.4,0.7c0.1,0.6-0.1,1.3-0.2,1.9c0,0.1,0,0.2,0.1,0.3c-0.2,0.2-0.4,0.3-0.6,0.2c-0.2-0.2-0.3-0.6-0.3-1
				C56.5,2.2,56.5,1.8,56.6,1.4z"/>
		</g>
		<g>
			<path class="st2" d="M61.1,5.7c0.6-0.1,0.7-0.6,0.8-1.1c0.2-0.3,0.4-0.7,0.5-1.1c0.1-0.5,0-1-0.1-1.4c-0.2-0.6-0.9-1.8-1.7-1.1
				c-0.3,0.3-0.4,0.8-0.5,1.2C60,2.7,60,3.2,60,3.8C60,4.4,60.1,5.9,61.1,5.7z M60.7,2.6c0-0.2,0-0.4,0.1-0.6c0-0.2,0.1-0.5,0.2-0.6
				c0.1-0.1,0.2,0.1,0.3,0.3c0.1,0.1,0.1,0.3,0.2,0.5c0.1,0.4,0.1,0.8,0,1.1c-0.1,0.4-0.1,0.9-0.2,1.3c0,0,0,0.1,0,0.1
				C61.2,4.9,61.1,5,61,5c-0.3-0.1-0.3-0.7-0.3-0.9C60.6,3.6,60.6,3.1,60.7,2.6z"/>
		</g>
		<g>
			<path class="st2" d="M51.3,8.5c0.3,0.1,0.6-0.1,0.9-0.3c0.2-0.1,0.3-0.3,0.5-0.4c0,0.4,0.1,0.9,0.1,1.3c0,0.3,0.1,0.7,0.1,1
				c0,0.3,0,0.6,0.3,0.8c0.3,0.2,0.6-0.1,0.6-0.3c0-0.3-0.1-0.5-0.1-0.8c0-0.3-0.1-0.6-0.1-0.9c-0.1-0.6-0.2-1.2-0.2-1.8
				c0-0.3-0.3-0.5-0.5-0.3C52.4,7,52.2,7.2,52,7.5c-0.1,0.1-0.2,0.2-0.3,0.4C51.6,7.9,51.6,8,51.5,8c0,0-0.1,0.1-0.1,0.1
				c-0.1,0-0.2,0.1-0.2,0.1c0,0,0,0,0,0C51.1,8.4,51.2,8.5,51.3,8.5z"/>
		</g>
		<g>
			<path class="st2" d="M55.7,6.8c0,0.3,0,0.5,0,0.8c0,0.6-0.2,1.2-0.1,1.8c0.1,0.4,0.7,0.4,0.8,0c0.2-0.5,0-1.2,0-1.8
				c0-0.6-0.1-1.2-0.1-1.8c0-0.4-0.5-0.5-0.7-0.2c-0.3,0.5-0.6,1.1-1,1.6c-0.1,0.2,0,0.5,0.2,0.3C55.2,7.3,55.5,7.1,55.7,6.8z"/>
		</g>
		<g>
			<path class="st2" d="M58.8,9.6c0,0.3,0,0.5,0.3,0.7c0.3,0.3,0.7-0.1,0.7-0.5c0-0.5-0.1-1-0.1-1.4c0-0.5-0.1-1.1-0.1-1.6
				c0-0.4-0.5-0.5-0.7-0.2c-0.3,0.3-0.4,0.7-0.6,1.1c-0.2,0.3-0.4,0.7-0.5,1.1C57.5,8.9,57.8,9,58,8.9c0.3-0.3,0.5-0.6,0.8-0.9
				c0,0,0,0,0,0c0,0.3,0,0.5,0,0.8C58.8,9,58.8,9.3,58.8,9.6z"/>
		</g>
		<g>
			<path class="st2" d="M62.5,9c0,0.4,0,0.7,0.1,1.1c0,0.3,0.1,0.6,0.1,1c0,0.2,0.1,0.3,0.1,0.5c0,0.2,0,0.3,0.1,0.5
				c0.1,0.3,0.6,0.5,0.8,0.2c0.2-0.3,0.2-0.6,0.1-1c-0.1-0.3-0.2-0.7-0.3-1c-0.2-0.7-0.3-1.5-0.3-2.2c0-0.4-0.5-0.5-0.7-0.2
				c-0.2,0.4-0.4,0.7-0.7,1.1c-0.2,0.2-0.5,0.4-0.4,0.7c0.1,0.2,0.4,0.1,0.4-0.2c0,0.1,0.3-0.1,0.4-0.2C62.3,9.2,62.4,9.1,62.5,9
				C62.5,9,62.5,9,62.5,9z"/>
		</g>
		<g>
			<path class="st2" d="M52.7,15.3C52.7,15.3,52.7,15.3,52.7,15.3C52.7,15.3,52.7,15.3,52.7,15.3z"/>
		</g>
		<g>
			<path class="st2" d="M54.5,15.9c0-0.3,0-0.5-0.1-0.8c0-0.5-0.1-1.1-0.1-1.6c0-0.3-0.4-0.4-0.6-0.2c-0.3,0.2-0.5,0.6-0.7,0.9
				c-0.2,0.3-0.5,0.6-0.7,0.9c-0.1,0.2,0.1,0.4,0.3,0.3c0,0,0,0,0,0c0,0,0.1,0,0.1,0c0,0,0.1,0,0.1,0c0,0,0.1,0,0.1-0.1
				c0.3-0.2,0.5-0.4,0.7-0.6c0,0,0.1-0.1,0.2-0.1c0,0.3,0,0.7,0,1c0,0.3,0,0.7,0,1c0,0.3,0.1,0.5,0.3,0.7c0.3,0.2,0.7-0.2,0.5-0.5
				C54.5,16.5,54.5,16.1,54.5,15.9z"/>
		</g>
		<g>
			<path class="st2" d="M57.6,12.9c-0.9-0.6-1.6,0.6-1.8,1.3c-0.1,0.4-0.2,0.9-0.2,1.4c0,0.4,0.1,0.8,0.4,1.1c0.3,0.3,0.6,0.3,1,0.2
				c0.4-0.1,0.7-0.4,0.8-0.8c0.2-0.4,0.2-0.9,0.1-1.3c-0.1-0.5-0.3-1-0.3-1.5C57.8,13.2,57.8,13,57.6,12.9z M56.7,16.3
				c-0.5-0.1-0.4-1.3-0.3-1.6c0.1-0.4,0.3-1.3,0.9-1.3c0,0.5,0.2,1,0.2,1.5C57.4,15.3,57.3,16.4,56.7,16.3z"/>
		</g>
		<g>
			<path class="st2" d="M60.7,12.5c-0.7-0.1-1.4,0.4-1.7,1.1c-0.3,0.8-0.2,2.1,0.5,2.7c0.8,0.6,2-0.3,2.4-1c0.5-0.9,0-2.2-0.7-2.9
				C61.1,12.2,60.8,12.3,60.7,12.5z M61.3,14.6c-0.1,0.4-0.8,1.4-1.3,1.1c-0.5-0.4-0.5-1.3-0.4-1.9c0.2-0.5,0.6-0.9,1.1-0.9
				c0.1,0.3,0.2,0.6,0.3,0.8C61.2,14,61.3,14.3,61.3,14.6z"/>
		</g>
		<g>
			<path class="st2" d="M50.4,21.8c0-0.4-0.1-0.9-0.1-1.3c0-0.3,0.1-0.8-0.3-1c-0.2-0.1-0.4-0.1-0.5,0.1c-0.3,0.2-0.5,0.5-0.8,0.8
				c-0.2,0.3-0.5,0.5-0.7,0.8c-0.2,0.3,0.2,0.5,0.4,0.4c0,0,0,0,0,0c0.3-0.2,0.5-0.4,0.8-0.7c0.1-0.1,0.2-0.2,0.3-0.2
				c0,0.2,0,0.4,0,0.6c0,0.4,0,0.8,0,1.2c0,0.4,0,0.8,0,1.2c0,0.3,0.1,0.7,0.5,0.7c0.1,0,0.3-0.1,0.3-0.3c0-0.2,0-0.6,0-0.9
				C50.5,22.7,50.5,22.2,50.4,21.8z"/>
		</g>
		<g>
			<path class="st2" d="M53.7,19.4c-0.4-0.2-0.8-0.1-1.1,0.1c-0.7,0.5-0.8,1.7-0.9,2.5c0,0.5,0,1,0.1,1.5c0.1,0.4,0.4,0.6,0.8,0.6
				c0.4,0,0.9-0.2,1.1-0.6c0.1-0.2,0.2-0.3,0.2-0.5c0.3-0.2,0.4-0.8,0.4-1.2c0-0.5,0-1-0.1-1.4C54.1,20.1,54,19.6,53.7,19.4z
				 M52.6,23.4C52.6,23.4,52.5,23.4,52.6,23.4c-0.1,0-0.1-0.3-0.1-0.4c0-0.2,0-0.4,0-0.6c0-0.4,0-0.9,0.1-1.3c0.1-0.3,0.2-0.7,0.4-1
				c0,0,0.1-0.1,0.2-0.1c0.1,0,0.1-0.1,0.1,0.1c0.1,0.2,0.1,0.4,0.1,0.5c0.1,0.4,0.1,0.7,0.1,1.1c0,0.4-0.2,0.8-0.1,1.2c0,0,0,0,0,0
				c0,0,0,0,0,0C53.2,23.1,52.9,23.5,52.6,23.4z"/>
		</g>
		<g>
			<path class="st2" d="M58,19.5c-0.1-0.4-0.4-0.7-0.9-0.8c-0.5,0-0.8,0.3-1.1,0.7c-0.5,0.7-0.8,1.7-0.6,2.6
				c0.1,0.8,0.9,1.6,1.8,1.4c0.4-0.1,0.8-0.4,0.9-0.9c0.1-0.3,0-0.6,0-0.9C58.2,20.9,58.2,20.2,58,19.5z M56.9,22.7
				c-0.9-0.1-0.8-1.3-0.6-1.9c0.1-0.4,0.3-0.7,0.5-1.1c0.1-0.1,0.2-0.3,0.3-0.3c0.1,0,0.2,0.3,0.2,0.4c0.1,0.4,0,0.9,0,1.3
				c0,0.4,0,0.8,0.1,1.3C57.2,22.6,57.1,22.7,56.9,22.7z"/>
		</g>
		<g>
			<path class="st2" d="M61.7,20.7c0-0.8,0-1.6-0.2-2.4c-0.1-0.3-0.4-0.3-0.6-0.2c-0.4,0.2-0.8,0.5-1.1,0.8
				c-0.2,0.2-0.3,0.3-0.5,0.5c-0.1,0.1-0.3,0.3-0.4,0.4c-0.1,0.2,0.3,0.4,0.4,0.2c0,0,0.2-0.1,0.2-0.1c0.1-0.1,0.2-0.1,0.3-0.2
				c0.2-0.1,0.3-0.2,0.5-0.3c0.2-0.1,0.3-0.2,0.5-0.3c0,0.5,0,1,0,1.5c0,0.3,0,0.7,0,1c0,0.3-0.1,0.7,0.1,1c0.1,0.4,0.6,0.4,0.8,0.1
				c0,0,0-0.1,0.1-0.2c0,0,0-0.1,0-0.1c0,0,0,0,0,0c0-0.2,0-0.4,0-0.6C61.6,21.5,61.7,21.1,61.7,20.7z"/>
		</g>
		<g>
			<path class="st2" d="M65.2,21.6c-0.1-0.2,0-0.6-0.1-0.9c0-0.4,0-0.7-0.1-1.1c0-0.3-0.1-0.7-0.1-1c0-0.3-0.1-0.5-0.4-0.7
				c-0.2-0.1-0.4-0.1-0.5,0.1c-0.5,0.5-1,1-1.5,1.5c-0.2,0.1,0,0.4,0.2,0.3c0.5-0.2,0.9-0.5,1.4-0.8c0,0.1,0,0.2,0,0.4
				c0,0.3,0,0.6,0,0.9c0,0.3,0,0.6,0,0.9c0,0.3-0.1,0.6,0,0.8C64.5,22.7,65.6,22.3,65.2,21.6z"/>
		</g>
		<g>
			<path class="st2" d="M51.8,14.3c0-0.1-0.1-0.1-0.1-0.1c-0.1-0.1-0.2-0.2-0.3-0.3c-0.4-0.4-0.9-0.2-1.3,0.1
				c-0.8,0.6-0.9,1.8-0.8,2.7c0.1,0.4,0.2,0.9,0.7,1.1c0.4,0.2,0.9,0,1.3-0.3C52,16.7,51.9,15.3,51.8,14.3z M51.1,16.5
				c-0.1,0.2-0.4,0.5-0.6,0.6c-0.4,0.1-0.5-0.3-0.5-0.6c-0.1-0.6-0.1-1.3,0.3-1.8c0.1-0.2,0.4-0.5,0.7-0.3c0.1,0.1,0.1,0.3,0.2,0.4
				c0.1,0.2,0.1,0.3,0.2,0.5c0,0.1,0.1,0.1,0.1,0.1c0,0,0,0,0,0.1C51.3,15.9,51.2,16.2,51.1,16.5z"/>
		</g>
	</g>
	<g>
		<g>
			<path class="st3" d="M10.7,23.6c-1.5-2.8-2.3-6-3.1-9c-0.7-2.7-1.1-5.4-1.5-8.2C6.1,6,5.5,6,5.4,6.3C5.2,7.6,5.4,8.7,5.6,10
				c0.3,1.6,0.6,3.2,1,4.8c0.8,3.1,2,6.3,3.6,9C10.5,24.1,10.9,23.9,10.7,23.6L10.7,23.6z"/>
		</g>
	</g>
	<g>
		<g>
			<path class="st3" d="M5.8,6.8c1.5-0.6,2.9-1.2,4.5-1.7c1.5-0.4,3-0.8,4.5-1.1c1.6-0.3,3.2-0.5,4.8-0.6c1.6-0.1,3.2,0.1,4.8-0.1
				c0.5-0.1,0.7-0.9,0.1-1c-1.6-0.3-3.3,0-4.9,0.1C18,2.5,16.4,2.7,14.9,3c-3.1,0.6-6.4,1.6-9.3,3.1C5.3,6.3,5.5,6.9,5.8,6.8
				L5.8,6.8z"/>
		</g>
	</g>
	<g>
		<g>
			<path class="st3" d="M24.1,2.9c1.2,2.5,1.6,5.2,2,7.9c0.2,1.4,0.4,2.9,0.6,4.3c0.2,1.3,0.2,2.7,0.5,4c0.1,0.5,0.8,0.3,0.8-0.1
				c0.1-1.5-0.2-2.9-0.4-4.4c-0.2-1.4-0.4-2.8-0.7-4.3c-0.5-2.6-1-5.4-2.2-7.8C24.4,2.2,23.9,2.6,24.1,2.9L24.1,2.9z"/>
		</g>
	</g>
	<g>
		<g>
			<path class="st3" d="M10.5,23.9c1.5,0,3.1-0.4,4.5-0.6c1.5-0.3,3.1-0.6,4.6-0.9c1.5-0.3,3-0.7,4.5-1.1c1.2-0.3,2.9-0.6,3.7-1.6
				c0.2-0.2-0.1-0.6-0.3-0.6c-0.7,0.1-1.2,0.5-1.8,0.7c-0.7,0.3-1.4,0.5-2.1,0.7c-1.4,0.5-2.9,0.8-4.3,1.2c-1.5,0.3-2.9,0.7-4.4,0.9
				c-1.4,0.3-3,0.4-4.4,0.8C10.2,23.5,10.2,23.9,10.5,23.9L10.5,23.9z"/>
		</g>
	</g>
	<g>
		<g>
			<path class="st3" d="M3.5,5.8c0,3.4,0.4,6.8,1.1,10.2c0.7,3.3,1.6,6.8,3.4,9.7c0.2,0.4,1,0.1,0.8-0.3c-0.6-1.6-1.4-3-2-4.6
				c-0.6-1.6-1.1-3.2-1.5-4.8C4.4,12.7,4.1,9.3,4.1,5.8C4.1,5.4,3.5,5.4,3.5,5.8L3.5,5.8z"/>
		</g>
	</g>
	<g>
		<g>
			<path class="st3" d="M3.8,6c3.1-1.7,6.5-2.8,9.9-3.6c1.8-0.4,3.6-0.8,5.5-1c1.9-0.2,3.8,0,5.7,0c0.4,0,0.5-0.7,0.1-0.8
				c-1.8-0.5-3.9-0.3-5.8-0.1c-1.9,0.2-3.7,0.6-5.5,1C10.2,2.4,6.6,3.5,3.5,5.5C3.2,5.7,3.5,6.2,3.8,6L3.8,6z"/>
		</g>
	</g>
	<g>
		<g>
			<path class="st3" d="M24.7,1.2C25.6,2.5,26,4,26.4,5.4c0.5,1.6,1,3.2,1.4,4.8c0.4,1.6,0.8,3.3,1.1,5c0.3,1.8,0.4,3.6,0.8,5.4
				c0.1,0.5,0.8,0.3,0.8-0.1c0.1-1.7-0.3-3.5-0.6-5.2c-0.3-1.9-0.8-3.7-1.3-5.5c-0.5-1.7-1-3.3-1.6-5C26.5,3.5,26,2.1,25.2,1
				C25,0.7,24.5,1,24.7,1.2L24.7,1.2z"/>
		</g>
	</g>
	<g>
		<g>
			<path class="st3" d="M8.3,26c4-0.3,8-1,11.9-1.9c1.9-0.4,3.9-0.9,5.8-1.5c1.4-0.4,3.4-0.8,4.3-2c0.1-0.2,0-0.5-0.3-0.5
				c-0.7,0.1-1.3,0.4-1.9,0.8c-0.9,0.4-1.8,0.7-2.7,1c-1.9,0.6-3.7,1-5.6,1.5c-3.8,0.9-7.7,1.4-11.6,2.1C7.9,25.5,8,26,8.3,26
				L8.3,26z"/>
		</g>
	</g>
	<g>
		<g>
			<path class="st3" d="M3.5,5.6c-0.7,1-1.3,2-1.9,3.1C1,9.8,0.3,10.9,0,12c-0.1,0.4,0.4,0.6,0.6,0.3c0.3-0.5,0.5-1.1,0.8-1.7
				C1.7,10.1,1.9,9.6,2.2,9C2.7,8,3.3,6.9,4,5.9C4.2,5.6,3.7,5.3,3.5,5.6L3.5,5.6z"/>
		</g>
	</g>
	<g>
		<g>
			<path class="st3" d="M0,12.1c0.3,3.3,0.8,6.4,1.8,9.6c0.9,3,2.1,6.2,4,8.8c0.3,0.4,0.9,0,0.7-0.4c-1.6-2.8-3-5.6-3.9-8.6
				c-0.9-3-1.5-6.2-1.9-9.4C0.6,11.7,0,11.7,0,12.1L0,12.1z"/>
		</g>
	</g>
	<g>
		<g>
			<path class="st3" d="M29.9,20.2c-0.3,0.2-0.5,0.6-0.7,0.9c-0.2,0.3-0.4,0.7-0.7,1c-0.4,0.6-0.9,1.3-1.4,1.9
				c-0.5,0.6-1,1.1-1.5,1.7c-0.3,0.3-0.6,0.6-0.8,0.9c-0.3,0.3-0.6,0.6-0.8,0.9c-0.2,0.4,0.2,0.9,0.6,0.6c0.3-0.2,0.6-0.6,0.9-0.9
				c0.3-0.3,0.5-0.6,0.8-0.9c0.5-0.6,1-1.2,1.5-1.8c0.5-0.6,1-1.2,1.4-1.8c0.2-0.3,0.5-0.7,0.7-1c0.2-0.3,0.5-0.7,0.6-1.1
				C30.5,20.2,30.1,20,29.9,20.2L29.9,20.2z"/>
		</g>
	</g>
	<g>
		<g>
			<path class="st3" d="M19.6,27.1c-0.3,1.2-0.4,2.3-0.5,3.5c-0.1,1.2-0.3,2.4-0.2,3.6c0.1,0.6,0.8,0.6,0.9,0c0.2-1.1,0-2.3,0.1-3.5
				c0-1.2,0.1-2.3,0.3-3.5C20.2,26.9,19.7,26.7,19.6,27.1L19.6,27.1z"/>
		</g>
	</g>
	<g>
		<g>
			<path class="st3" d="M15.6,28.1c0,1,0,2.1,0,3.1c0,1,0,2.1,0.3,3.1c0.2,0.5,1,0.4,1-0.1c0-1-0.3-2-0.4-3.1c-0.1-1-0.2-2-0.1-3.1
				C16.3,27.7,15.7,27.7,15.6,28.1L15.6,28.1z"/>
		</g>
	</g>
	<g>
		<g>
			<path class="st3" d="M6.5,30.8c0.7,0.2,1.5,0,2.2,0c0.8-0.1,1.6-0.1,2.4-0.2c1.5-0.1,3.1-0.2,4.5-0.7c0.4-0.1,0.3-0.7-0.1-0.7
				c-1.5,0-3,0.4-4.5,0.6c-0.8,0.1-1.5,0.2-2.3,0.2c-0.3,0-0.7,0.1-1,0.1c-0.4,0-0.8,0-1.1,0.2C6.2,30.3,6.2,30.7,6.5,30.8L6.5,30.8
				z"/>
		</g>
	</g>
	<g>
		<g>
			<path class="st3" d="M19.9,29.2c0.8-0.1,1.6-0.1,2.3-0.3c0.4-0.1,0.7-0.1,1.1-0.2c0.4-0.1,0.8-0.2,1.1-0.4
				c0.3-0.2,0.2-0.6-0.2-0.6c-0.8,0-1.5,0.2-2.3,0.4c-0.7,0.2-1.5,0.4-2.2,0.5C19.5,28.7,19.5,29.3,19.9,29.2L19.9,29.2z"/>
		</g>
	</g>
	<g>
		<g>
			<path class="st3" d="M7.8,25.4c-0.4,0.8-0.8,1.6-1.1,2.4c-0.2,0.4-0.3,0.8-0.5,1.2c-0.2,0.4-0.5,0.8-0.5,1.3
				c0,0.4,0.5,0.6,0.7,0.3c0.3-0.3,0.4-0.8,0.5-1.2c0.2-0.4,0.3-0.8,0.5-1.2c0.3-0.8,0.6-1.6,1-2.4C8.6,25.4,8,25,7.8,25.4L7.8,25.4
				z"/>
		</g>
	</g>
	<g>
		<g>
			<path class="st3" d="M16,34.6c0.4,0.5,1.2,0.6,1.8,0.6c0.3,0,0.6,0,1,0c0.3,0,0.7-0.1,1-0.3c0.3-0.2,0.4-0.6,0.2-0.8
				c-0.2-0.3-0.6-0.3-0.8-0.1c0,0,0,0,0,0c0,0-0.1,0-0.1,0.1c-0.1,0.1,0.1,0-0.1,0c-0.1,0-0.2,0.1-0.3,0.1c-0.3,0-0.5,0.1-0.8,0.1
				c-0.3,0-0.5,0-0.8,0c-0.2,0-0.5-0.1-0.7-0.2C16,34,15.8,34.4,16,34.6L16,34.6z"/>
		</g>
	</g>
	<g>
		<g>
			<path class="st3" d="M16.2,28.4c0.6-0.4,1.2-0.6,1.8-0.7c0.3-0.1,0.6-0.1,0.9-0.1c0.2,0,0.3,0,0.5,0c0,0,0.1,0,0.1,0
				c-0.1,0-0.1,0,0.1,0c0.2,0,0.3,0,0.4-0.1c0.3-0.2,0.3-0.5,0.1-0.7c-0.2-0.2-0.4-0.2-0.7-0.2c-0.2,0-0.3,0-0.5,0
				c-0.4,0-0.8,0.1-1.1,0.2c-0.7,0.2-1.4,0.5-1.9,0.9c-0.1,0.1-0.2,0.3-0.1,0.4C15.8,28.4,16.1,28.5,16.2,28.4L16.2,28.4z"/>
		</g>
	</g>
	<g>
		<g>
			<path class="st3" d="M15.6,33c-1.2,0.7-2.3,1.4-3.4,2.2c-0.6,0.4-1.1,0.8-1.6,1.2c-0.3,0.2-0.5,0.4-0.8,0.6
				c-0.3,0.2-0.6,0.5-0.8,0.8c-0.3,0.4,0.2,0.8,0.7,0.7c0.3-0.1,0.5-0.4,0.8-0.6c0.2-0.2,0.5-0.4,0.7-0.7c0.5-0.4,1-0.9,1.6-1.3
				c1-0.8,2.2-1.6,3.3-2.3C16.3,33.3,16,32.7,15.6,33L15.6,33z"/>
		</g>
	</g>
	<g>
		<g>
			<path class="st3" d="M19.5,32.8c0.8,0.3,1.7,0.3,2.5,0.4c0.8,0.1,1.6,0.3,2.3,0.4c1.6,0.3,3.1,0.7,4.5,1.4
				c0.6,0.3,1.1-0.5,0.5-0.9c-0.7-0.4-1.5-0.7-2.3-0.9c-0.8-0.2-1.6-0.4-2.4-0.5c-0.8-0.2-1.6-0.3-2.5-0.4c-0.8-0.1-1.8-0.3-2.6-0.2
				C19.1,32.2,19.2,32.7,19.5,32.8L19.5,32.8z"/>
		</g>
	</g>
	<g>
		<g>
			<path class="st3" d="M28.8,34.5c-2.5,0.9-5,1.5-7.6,2.2c-1.4,0.4-2.9,0.8-4.3,1.2c-1.4,0.4-2.9,0.8-4.2,1.4
				c-0.4,0.2-0.1,0.8,0.3,0.7c1.5-0.2,2.9-0.7,4.3-1.2c1.4-0.4,2.9-0.9,4.3-1.3c2.5-0.8,5-1.5,7.4-2.4C29.3,35,29.2,34.3,28.8,34.5
				L28.8,34.5z"/>
		</g>
	</g>
	<g>
		<g>
			<path class="st3" d="M9.2,38.4c1.1,0.6,2.3,1,3.5,1.5c0.4,0.2,0.6-0.5,0.3-0.7c-1.1-0.6-2.3-0.9-3.5-1.4c-0.2-0.1-0.3,0-0.4,0.1
				C9,38.1,9,38.3,9.2,38.4L9.2,38.4z"/>
		</g>
	</g>
	<g>
		<g>
			<path class="st3" d="M13.5,42.3c-0.6,1.7-0.1,3.8,0.1,5.6c0.2,1.9,0.4,3.8,0.6,5.7c0.2,1.7,0.4,3.5,0.7,5.2
				c0.3,1.5,0.4,3.2,1,4.7c0.2,0.5,0.9,0.1,0.8-0.4c-0.5-3.2-1.2-6.3-1.6-9.5c-0.3-1.9-0.5-3.7-0.7-5.6c-0.2-1.8-0.8-3.9-0.3-5.6
				C14.2,42.1,13.6,41.9,13.5,42.3L13.5,42.3z"/>
		</g>
	</g>
	<g>
		<g>
			<path class="st3" d="M13.9,42.7c1.3-0.2,2.6-0.7,3.9-1.2c1.3-0.4,2.6-0.9,3.8-1.3c1.3-0.4,2.5-0.8,3.8-1.2
				c1.2-0.3,2.4-0.6,3.6-1.1c0.3-0.2,0.2-0.7-0.2-0.7c-1.3,0-2.4,0.3-3.7,0.7c-1.3,0.4-2.6,0.9-3.9,1.4c-1.3,0.5-2.5,0.9-3.8,1.4
				c-1.2,0.4-2.6,0.8-3.7,1.4C13.3,42.3,13.6,42.7,13.9,42.7L13.9,42.7z"/>
		</g>
	</g>
	<g>
		<g>
			<path class="st3" d="M28.5,37.9c0.5,1.7,0.7,3.5,0.9,5.2c0.2,2.1,0.5,4.2,0.7,6.3c0.2,1.8,0.3,3.6,0.5,5.4c0.1,1,0.1,1.9,0.5,2.8
				c0.1,0.4,0.7,0.3,0.7-0.1c0.3-2.8-0.3-5.7-0.7-8.5c-0.4-3.8-1-7.6-1.9-11.4C29.1,37.3,28.4,37.5,28.5,37.9L28.5,37.9z"/>
		</g>
	</g>
	<g>
		<g>
			<path class="st3" d="M16.5,63.8c0.7,0.1,1.4-0.1,2-0.3c0.7-0.2,1.4-0.4,2.1-0.6c1.4-0.4,2.7-0.9,4.1-1.4c1.2-0.5,2.5-1,3.7-1.7
				c0.6-0.3,1.3-0.7,1.9-1.1c0.6-0.3,1.3-0.6,1.6-1.2c0.2-0.3-0.1-0.7-0.5-0.6c-0.6,0.1-1.1,0.6-1.6,1c-0.6,0.4-1.1,0.7-1.7,1.1
				c-1.2,0.7-2.5,1.3-3.8,1.8c-2.5,1-5.2,1.9-7.8,2.4C16.1,63.3,16.2,63.7,16.5,63.8L16.5,63.8z"/>
		</g>
	</g>
	<g>
		<g>
			<path class="st3" d="M8.8,38c-1.2,3.1-2.1,6.3-2.8,9.5c-0.4,1.6-0.8,3.2-1,4.8c-0.2,1.5-0.6,3.1-0.4,4.6c0.3,2.1,0.4,4.1,0.7,6.2
				c0.2,1.6,0.3,3.8,1.3,5.1c0.3,0.3,0.8,0,0.7-0.4c-1.1-3.5-2-7.7-1.6-11.4C6,53.3,6.3,50.3,7,47.3c0.7-3.1,1.7-6.1,2.3-9.1
				C9.4,37.8,8.9,37.7,8.8,38L8.8,38z"/>
		</g>
	</g>
	<g>
		<g>
			<path class="st3" d="M11.2,41.7c-0.6,1-0.7,2.4-0.8,3.6c-0.1,1.4-0.5,2.7-0.8,4.1c-0.3,1.3-0.6,2.5-0.8,3.8
				c-0.2,1.2-0.6,2.4-0.6,3.6c0,0.4,0.5,0.4,0.6,0.1c0.4-1.2,0.5-2.5,0.8-3.8c0.3-1.3,0.5-2.6,0.8-3.9c0.3-1.3,0.5-2.6,0.9-3.9
				c0.3-1.1,0.8-2.4,0.5-3.6C11.6,41.5,11.3,41.5,11.2,41.7L11.2,41.7z"/>
		</g>
	</g>
	<g>
		<g>
			<path class="st3" d="M8.1,56.8c0.2,1.9,0.6,3.7,0.9,5.5c0.2,0.9,0.3,1.8,0.5,2.7c0.1,0.9,0.2,1.9,0.6,2.7
				c0.2,0.3,0.6,0.2,0.7-0.2c0.1-0.9-0.3-1.9-0.5-2.8c-0.2-0.9-0.4-1.7-0.5-2.6c-0.3-1.8-0.6-3.7-1.1-5.5C8.6,56.4,8,56.4,8.1,56.8
				L8.1,56.8z"/>
		</g>
	</g>
	<g>
		<g>
			<path class="st3" d="M6.6,67.6c-1,1.4,0.2,3.3,0.9,4.6c0.3,0.6,0.7,1.1,1.1,1.7c0.2,0.3,0.4,0.7,0.6,1c0.3,0.4,0.5,1.1,1,1.2
				c0.9,0.2,2.5-0.3,2.5-1.4c0-0.4-0.5-0.6-0.7-0.3c-0.2,0.2-0.5,0.4-0.8,0.5c-0.2,0.1-0.6,0.2-0.8,0.2c0.1,0.1,0.2,0.2,0.3,0.2
				c-0.5-0.6-1-1.3-1.4-1.9c-0.3-0.5-0.6-1-0.9-1.5c-0.4-0.6-0.7-1.3-1-2c-0.2-0.6-0.5-1.3-0.2-2C7.2,67.5,6.8,67.4,6.6,67.6
				L6.6,67.6z"/>
		</g>
	</g>
	<g>
		<g>
			<path class="st3" d="M10,67.5c0.4,0.5,0.7,1.1,0.9,1.7c0.2,0.6,0.4,1.2,0.5,1.8c0.3,1.3,0.1,2.5,0.4,3.8c0.1,0.4,0.6,0.3,0.7,0
				c0.4-1.3,0.2-2.8-0.1-4.1c-0.3-1.3-1.1-2.5-1.9-3.5C10.3,66.9,9.8,67.2,10,67.5L10,67.5z"/>
		</g>
	</g>
	<g>
		<g>
			<path class="st3" d="M9.2,51.9c0.3,3.1,0.5,6.2,1,9.3c0.2,1.4,0.2,3.5,1.5,4.3c0.7,0.5,1.5,0.9,2.3,1.2c0.7,0.3,1.4,0.6,2.2,0.6
				c0.4,0,0.4-0.6,0.1-0.7c-1.4-0.6-2.9-1.1-4.1-2c-0.6-0.5-0.7-1.6-0.9-2.4c-0.2-0.8-0.3-1.6-0.4-2.5c-0.4-2.7-0.6-5.4-1.1-8
				C9.8,51.5,9.2,51.6,9.2,51.9L9.2,51.9z"/>
		</g>
	</g>
	<g>
		<g>
			<path class="st3" d="M16.2,67.6c1.7,0,3.3-0.8,4.9-1.4c1.5-0.6,3-1.2,4.5-1.8c1.5-0.6,3-1.3,4.4-2.1c0.7-0.4,1.5-0.9,2.1-1.4
				c0.6-0.4,1.3-0.8,1.5-1.5c0.1-0.3-0.1-0.6-0.5-0.6c-0.7,0.1-1.1,0.5-1.6,0.9c-0.6,0.5-1.3,1-2.1,1.5c-1.3,0.9-2.7,1.6-4.1,2.3
				c-1.4,0.7-2.9,1.2-4.4,1.8c-1.6,0.6-3.2,1.3-4.9,1.6C15.7,66.9,15.8,67.6,16.2,67.6L16.2,67.6z"/>
		</g>
	</g>
	<g>
		<g>
			<path class="st3" d="M29,34.8c1,1.8,1.3,3.8,1.7,5.8c0.5,2.6,0.9,5.2,1.2,7.8c0.2,2.3,0.5,4.7,0.6,7c0,1.2,0.2,2.7,0,3.7
				c-0.1,0.7,0.9,1,1,0.3c0.2-1.3,0-2.7-0.1-4c-0.2-2.4-0.3-4.9-0.6-7.3c-0.5-4.5-0.9-9.6-3.1-13.7C29.4,34,28.8,34.4,29,34.8
				L29,34.8z"/>
		</g>
	</g>
	<g>
		<g>
			<path class="st3" d="M29.5,35.3c1.3,2.2,2.8,4.2,4.4,6.1c0.8,0.9,1.6,1.8,2.3,2.8c0.4,0.5,0.8,1,1.1,1.6c0.4,0.5,0.7,1.2,1.3,1.6
				c0.4,0.3,0.8-0.2,0.7-0.5c-0.1-0.6-0.7-1.2-1-1.7c-0.4-0.5-0.8-0.9-1.2-1.4c-0.8-0.9-1.6-1.8-2.4-2.7C33.1,39,31.4,37.1,30,35
				C29.8,34.7,29.3,35,29.5,35.3L29.5,35.3z"/>
		</g>
	</g>
	<g>
		<g>
			<path class="st3" d="M31.2,42.4c1,2,2.4,3.8,3.8,5.6c0.7,0.9,1.4,1.7,2.1,2.5c0.5,0.6,1.8,1.3,2.6,0.7c0.4-0.3,0.3-1-0.3-1
				c-0.5,0-0.8,0.2-1.2-0.1c-0.4-0.2-0.6-0.6-0.9-0.9c-0.7-0.7-1.3-1.5-1.9-2.2c-1.3-1.5-2.6-3.1-3.6-4.9C31.6,41.7,31,42,31.2,42.4
				L31.2,42.4z"/>
		</g>
	</g>
	<g>
		<g>
			<path class="st3" d="M39.3,47.1c1-1.7,1.5-3.7,2.2-5.5c0.8-2,1.6-3.9,2.5-5.8c0.8-1.8,1.7-3.6,2.5-5.4c0.4-1,0.8-1.9,1.3-2.9
				c0.4-0.9,1-1.7,1.4-2.6c0.2-0.4-0.2-0.9-0.6-0.6c-0.8,0.4-1,1.2-1.3,1.9c-0.4,1-0.9,2.1-1.3,3.1c-0.9,1.9-1.7,3.9-2.6,5.8
				c-0.8,1.8-1.6,3.7-2.4,5.5c-0.8,2-1.9,4.1-2.3,6.2C38.5,47.2,39.1,47.5,39.3,47.1L39.3,47.1z"/>
		</g>
	</g>
	<g>
		<g>
			<path class="st3" d="M39.2,51.2c1.4-0.2,1.9-1.6,2.3-2.7c0.9-2.3,1.9-4.4,2.9-6.7c1-2.3,2-4.7,3.1-7c1-2.2,2.2-4.3,3.1-6.6
				c0.2-0.4-0.5-0.6-0.7-0.3c-1.3,1.8-2.2,3.9-3.1,6c-0.9,2.1-1.8,4.3-2.7,6.4c-0.9,2.1-1.8,4.2-2.7,6.3c-0.6,1.5-1.1,2.8-2.4,3.8
				C38.8,50.7,38.8,51.3,39.2,51.2L39.2,51.2z"/>
		</g>
	</g>
	<g>
		<g>
			<path class="st3" d="M49.3,30.9c0-1.5,2.8-1.7,3.9-1.9c1.4-0.3,2.8-0.4,4.3-0.6c3-0.4,6.2-0.8,9.1-1.9c0.3-0.1,0.3-0.7-0.1-0.7
				c-3.7,0.3-7.3,1.4-11,1.9c-1.5,0.2-3,0.4-4.5,0.8c-1.2,0.3-2.4,1-2.3,2.4C48.7,31.3,49.3,31.3,49.3,30.9L49.3,30.9z"/>
		</g>
	</g>
	<g>
		<g>
			<path class="st3" d="M57,26.6c1.6-0.1,3.1-0.3,4.7-0.5c0.8-0.1,1.5-0.1,2.3-0.2c0.4,0,0.8,0,1.2,0c0.4,0,0.8,0,1.2-0.1
				c0.3-0.1,0.4-0.6,0.1-0.7c-0.7-0.3-1.6-0.2-2.3-0.1c-0.8,0.1-1.6,0.2-2.4,0.3c-1.6,0.2-3.2,0.5-4.8,0.8
				C56.6,26.1,56.6,26.7,57,26.6L57,26.6z"/>
		</g>
	</g>
	<g>
		<g>
			<path class="st3" d="M57.2,25.4c1.3-0.1,2.7-0.1,4-0.2c1.3-0.1,2.7,0,4-0.1c0.5,0,0.5-0.7,0-0.8c-1.4-0.2-2.8,0-4.1,0
				c-1.4,0.1-2.7,0.3-4,0.5C56.8,24.9,56.9,25.5,57.2,25.4L57.2,25.4z"/>
		</g>
	</g>
	<g>
		<g>
			<path class="st3" d="M55.7,24.7c0.8-0.1,1.6-0.2,2.4-0.3c0.2,0,0.3-0.1,0.3-0.3c0-0.2-0.1-0.3-0.3-0.3c-0.8,0.1-1.6,0.1-2.4,0.2
				c-0.2,0-0.4,0.2-0.4,0.4C55.4,24.6,55.5,24.8,55.7,24.7L55.7,24.7z"/>
		</g>
	</g>
	<g>
		<g>
			<path class="st3" d="M27.1,63.3c-0.3,1.2-0.5,2.5-0.8,3.7c-0.3,1.3-0.6,2.5-0.8,3.8c-0.1,0.5,0.7,0.7,0.8,0.2
				c0.3-1.3,0.5-2.6,0.7-3.9c0.2-1.3,0.5-2.5,0.7-3.8C27.7,63.1,27.1,62.9,27.1,63.3L27.1,63.3z"/>
		</g>
	</g>
	<g>
		<g>
			<path class="st3" d="M22.3,65.2c-0.1,0.9,0,1.8,0,2.7c0.1,1.6,0.1,3.2,0.3,4.7c0.1,0.5,0.7,0.5,0.7,0c0-2.5-0.4-4.9-0.4-7.4
				C23,64.7,22.3,64.7,22.3,65.2L22.3,65.2z"/>
		</g>
	</g>
	<g>
		<g>
			<path class="st3" d="M20,73.7c0.1-1.2,0.1-2.5,0.1-3.7c0-1.2,0-2.5-0.1-3.7c-0.1-0.5-0.8-0.5-0.8,0c-0.1,1.2,0,2.5,0.1,3.7
				c0.1,1.2,0.1,2.5,0.3,3.7C19.5,74.1,20,74.1,20,73.7L20,73.7z"/>
		</g>
	</g>
	<g>
		<g>
			<path class="st3" d="M14.1,66.8c0.2,1.3,0.5,2.6,0.8,3.9c0.3,1.3,0.5,2.6,0.9,3.8c0.1,0.4,0.8,0.4,0.7-0.1
				c-0.1-1.3-0.5-2.6-0.8-3.9c-0.3-1.3-0.6-2.6-0.9-3.9C14.6,66.2,14,66.4,14.1,66.8L14.1,66.8z"/>
		</g>
	</g>
	<line class="st4" x1="10" y1="40.5" x2="11.5" y2="41.8"/>
</g>
</svg>
