<?xml version="1.0" encoding="utf-8"?>
<!-- Generator: Adobe Illustrator 24.3.0, SVG Export Plug-In . SVG Version: 6.00 Build 0)  -->
<svg version="1.1" id="Layer_1" xmlns="http://www.w3.org/2000/svg" xmlns:xlink="http://www.w3.org/1999/xlink" x="0px" y="0px"
	 viewBox="0 0 39.6 35.1" style="enable-background:new 0 0 39.6 35.1;" xml:space="preserve">
<style type="text/css">
	.st0{fill:#F48286;}
</style>
<g>
	<g>
		<g>
			<path class="st0" d="M34.8,29.2h-5.3c-0.2,0-0.3,0.2-0.3,0.3v5.3c0,0.2,0.2,0.3,0.3,0.3h5.3c0.2,0,0.3-0.2,0.3-0.3v-5.3
				C35.1,29.3,34.9,29.2,34.8,29.2z"/>
			<path class="st0" d="M15.4,29.5c0-0.2-0.2-0.3-0.3-0.3h-4.7c-0.2,0-0.3,0.2-0.3,0.3v5.3c0,0.2,0.2,0.3,0.3,0.3h4.8
				c0.2,0,0.3-0.2,0.3-0.3c0-0.1,0-0.2-0.1-0.2V29.5z"/>
			<path class="st0" d="M24.8,29.2H20c-0.2,0-0.3,0.2-0.3,0.3v5.3c0,0.2,0.2,0.3,0.3,0.3h4.7c0.2,0,0.3-0.2,0.3-0.3v-5.3
				C25.1,29.3,25,29.2,24.8,29.2z"/>
			<path class="st0" d="M5.6,29.2H0.3c-0.2,0-0.3,0.2-0.3,0.3v5.3c0,0.2,0.2,0.3,0.3,0.3h5.3c0.2,0,0.3-0.2,0.3-0.3v-5.3
				C5.9,29.3,5.8,29.2,5.6,29.2z"/>
			<path class="st0" d="M5.6,19.7H0.3C0.2,19.7,0,19.8,0,20v4.7c0,0.2,0.2,0.3,0.3,0.3h5.3c0.2,0,0.3-0.2,0.3-0.3V20
				C5.9,19.8,5.8,19.7,5.6,19.7z"/>
			<path class="st0" d="M5.6,10H0.3C0.2,10,0,10.2,0,10.3v4.8c0,0.2,0.2,0.3,0.3,0.3h5.3c0.2,0,0.3-0.2,0.3-0.3v-4.8
				C5.9,10.2,5.8,10,5.6,10z"/>
			<path class="st0" d="M5.6,0H0.3C0.2,0,0,0.2,0,0.3v5.3c0,0.2,0.2,0.3,0.3,0.3h5.3c0.2,0,0.3-0.2,0.3-0.3V0.3C5.9,0.2,5.8,0,5.6,0
				z"/>
			<path class="st0" d="M20,5.9h4.7c0.2,0,0.3-0.2,0.3-0.3V0.3C25.1,0.2,25,0,24.8,0H20c-0.2,0-0.3,0.2-0.3,0.3v5.3
				C19.7,5.8,19.8,5.9,20,5.9z"/>
			<path class="st0" d="M15.4,0.3c0-0.2-0.2-0.3-0.3-0.3h-4.7C10.2,0,10,0.2,10,0.3v5.3c0,0.2,0.2,0.3,0.3,0.3h4.8
				c0.2,0,0.3-0.2,0.3-0.3c0-0.1,0-0.2-0.1-0.2V0.3z"/>
			<path class="st0" d="M29.5,5.9h5.3c0.2,0,0.3-0.2,0.3-0.3V0.3c0-0.2-0.2-0.3-0.3-0.3h-5.3c-0.2,0-0.3,0.2-0.3,0.3v5.3
				C29.2,5.8,29.3,5.9,29.5,5.9z"/>
			<path class="st0" d="M32.1,10.1c-4.1,0-7.5,3.4-7.5,7.5s3.4,7.5,7.5,7.5s7.5-3.4,7.5-7.5S36.3,10.1,32.1,10.1z"/>
		</g>
	</g>
</g>
</svg>
