<?xml version="1.0" encoding="utf-8"?>
<!-- Generator: Adobe Illustrator 24.3.0, SVG Export Plug-In . SVG Version: 6.00 Build 0)  -->
<svg version="1.1" id="Layer_1" xmlns="http://www.w3.org/2000/svg" xmlns:xlink="http://www.w3.org/1999/xlink" x="0px" y="0px"
	 viewBox="0 0 40.3 40.2" style="enable-background:new 0 0 40.3 40.2;" xml:space="preserve">
<style type="text/css">
	.st0{fill:#198986;}
	.st1{fill:#44C1C5;}
</style>
<g>
	<path class="st0" d="M35.1,39.3c-1-3-1.9-5-2.8-6.8c-1.7-3.5-3-6.2-3.1-13.7h-4.9c-0.1,7.5-1.4,10.2-3,13.7
		c0.8,1.8,1.8,3.9,2.7,6.8h-1c-1.1-3.5-2.3-5.9-3.3-8c-2-4.2-3.5-7.3-3.5-16h-5.8c0,8.7-1.5,11.8-3.5,16c-1,2.1-2.2,4.5-3.3,8H0v0.9
		h40.3v-0.9H35.1z"/>
	<path class="st1" d="M16.1,8c-0.8,0-1.4,0.3-1.8,0.8c-0.4,0.5-0.6,1.3-0.6,2.2c0,0.9,0.2,1.6,0.6,2.2c0.4,0.5,1,0.8,1.8,0.8
		c0.8,0,1.4-0.3,1.8-0.8s0.6-1.3,0.6-2.2c0-0.9-0.2-1.6-0.6-2.2S16.9,8,16.1,8z M16.1,12.5c-0.5,0-0.8-0.5-0.8-1.4
		c0-0.9,0.3-1.4,0.8-1.4s0.8,0.5,0.8,1.4C16.9,12,16.6,12.5,16.1,12.5L16.1,12.5z"/>
	<path class="st1" d="M29.9,8c-0.8,0-1.4,0.3-1.8,0.8c-0.4,0.5-0.6,1.3-0.6,2.2c0,0.9,0.2,1.6,0.6,2.2c0.4,0.5,1,0.8,1.8,0.8
		c0.8,0,1.4-0.3,1.8-0.8c0.4-0.5,0.6-1.3,0.6-2.2c0-0.9-0.2-1.6-0.6-2.2C31.3,8.3,30.7,8,29.9,8z M29.9,12.5c-0.5,0-0.8-0.5-0.8-1.4
		c0-0.9,0.3-1.4,0.8-1.4c0.5,0,0.8,0.5,0.8,1.4C30.7,12,30.4,12.5,29.9,12.5L29.9,12.5z"/>
	<path class="st1" d="M7.8,0C7,0,6.4,0.3,6,0.8C5.6,1.4,5.4,2.1,5.4,3c0,0.9,0.2,1.6,0.6,2.2C6.4,5.7,7,6,7.8,6
		c0.8,0,1.4-0.3,1.8-0.8C10,4.7,10.2,3.9,10.2,3c0-0.9-0.2-1.6-0.6-2.2C9.2,0.3,8.6,0,7.8,0z M7.8,4.4C7.3,4.4,7,3.9,7,3
		c0-0.9,0.3-1.4,0.8-1.4c0.5,0,0.8,0.5,0.8,1.4C8.6,3.9,8.3,4.4,7.8,4.4L7.8,4.4z"/>
	<path class="st1" d="M18.3,0.3c-0.8,0-1.4,0.3-1.8,0.8c-0.4,0.5-0.6,1.3-0.6,2.2c0,0.9,0.2,1.6,0.6,2.2c0.4,0.5,1,0.8,1.8,0.8
		c0.8,0,1.4-0.3,1.8-0.8c0.4-0.5,0.6-1.3,0.6-2.2c0-0.9-0.2-1.6-0.6-2.2C19.7,0.5,19.1,0.3,18.3,0.3z M18.3,4.7
		c-0.5,0-0.8-0.5-0.8-1.4c0-0.9,0.3-1.4,0.8-1.4c0.5,0,0.8,0.5,0.8,1.4S18.8,4.7,18.3,4.7L18.3,4.7z"/>
	<path class="st1" d="M24.6,3.8c-0.8,0-1.4,0.3-1.8,0.8c-0.4,0.5-0.6,1.3-0.6,2.2c0,0.9,0.2,1.6,0.6,2.2s1,0.8,1.8,0.8
		c0.8,0,1.4-0.3,1.8-0.8C26.8,8.4,27,7.7,27,6.8c0-0.9-0.2-1.6-0.6-2.2C26,4,25.4,3.8,24.6,3.8z M24.6,8.2c-0.5,0-0.8-0.5-0.8-1.4
		s0.3-1.4,0.8-1.4s0.8,0.5,0.8,1.4C25.4,7.7,25.1,8.2,24.6,8.2L24.6,8.2z"/>
	<path class="st1" d="M8.8,8.9l0.1,0.5C9,9.7,9.2,9.8,9.5,9.8l0,0c0.2-0.1,0.5,0.1,0.6,0.3c0,0,0,0.1,0,0.1v3c0,0.3,0.2,0.5,0.5,0.5
		h0.7c0.3,0,0.5-0.2,0.5-0.5l0,0V8.4c0-0.3-0.2-0.5-0.5-0.5l0,0h-0.9c-0.1,0-0.1,0-0.2,0L9,8.4C8.8,8.4,8.7,8.7,8.8,8.9z"/>
	<path class="st1" d="M22.8,12.4L23,13c0.1,0.2,0.3,0.4,0.5,0.3l0,0c0.2-0.1,0.5,0.1,0.6,0.3c0,0,0,0.1,0,0.1v3
		c0,0.3,0.2,0.5,0.5,0.5h0.7c0.3,0,0.5-0.2,0.5-0.5l0,0v-4.8c0-0.3-0.2-0.5-0.5-0.5l0,0h-0.9c-0.1,0-0.1,0-0.2,0l-1.1,0.4
		C22.9,11.9,22.7,12.2,22.8,12.4z"/>
	<path class="st1" d="M11.3,2l0.1,0.5c0.1,0.2,0.3,0.4,0.5,0.3l0,0c0.2-0.1,0.5,0.1,0.6,0.3c0,0,0,0.1,0,0.1v3
		c0,0.3,0.2,0.5,0.5,0.5h0.7c0.3,0,0.5-0.2,0.5-0.5l0,0V1.5C14.2,1.2,14,1,13.8,1l0,0h-0.9c-0.1,0-0.1,0-0.2,0l-1.1,0.4
		C11.4,1.5,11.3,1.8,11.3,2z"/>
	<path class="st1" d="M27,1.4l0.1,0.5c0.1,0.2,0.3,0.4,0.5,0.3l0,0c0.2-0.1,0.5,0.1,0.6,0.3c0,0,0,0.1,0,0.1v3
		c0,0.3,0.2,0.5,0.5,0.5h0.7c0.3,0,0.5-0.2,0.5-0.5l0,0V0.9c0-0.3-0.2-0.5-0.5-0.5l0,0h-0.9c-0.1,0-0.1,0-0.2,0l-1.1,0.4
		C27.1,0.9,27,1.2,27,1.4z"/>
</g>
</svg>
