<?xml version="1.0" encoding="utf-8"?>
<!-- Generator: Adobe Illustrator 24.3.0, SVG Export Plug-In . SVG Version: 6.00 Build 0)  -->
<svg version="1.1" id="Layer_1" xmlns="http://www.w3.org/2000/svg" xmlns:xlink="http://www.w3.org/1999/xlink" x="0px" y="0px"
	 viewBox="0 0 17.3 15.2" style="enable-background:new 0 0 17.3 15.2;" xml:space="preserve">
<style type="text/css">
	.st0{fill:#9A9B9B;}
</style>
<path class="st0" d="M17.3,12.9V2.4c0-0.4-0.3-0.7-0.7-0.7h-1.3V0.4c0-0.2-0.2-0.4-0.4-0.4c0,0,0,0,0,0h-2.7c-0.8,0-1.7,0.2-2.4,0.6
	C9.4,0.8,9.2,1.1,9.2,1.5l0,10.5c0,0.3,0.3,0.5,0.6,0.3c0.7-0.5,1.5-0.7,2.3-0.7h2.8c0.2,0,0.4-0.2,0.4-0.4V2.7h1.1v10.1h-4.2
	c-1,0-2,0.4-2.6,1.2l0,0C9.6,14,9.5,14,9.4,14.1l-0.1,0c-0.1,0-0.1,0.1-0.2,0.1l0,0l-0.1,0c0,0-0.1,0-0.1,0l-0.1,0
	c-0.1,0-0.2,0-0.3,0H8.6c-0.1,0-0.1,0-0.2,0c0,0-0.1,0-0.1,0c0,0-0.1,0-0.1,0l-0.1,0l0,0c-0.1,0-0.1-0.1-0.2-0.1l-0.1,0
	c-0.1,0-0.1-0.1-0.2-0.1l0,0C7,13.1,6,12.7,5,12.7H0.9v-10H2v8.5c0,0.2,0.2,0.4,0.4,0.4h2.7c0.8,0,1.6,0.3,2.3,0.7
	c0.3,0.2,0.6,0,0.6-0.3l0-10.5c0-0.4-0.2-0.7-0.5-0.9C6.8,0.2,6,0,5.2,0H2.4C2.2,0,2,0.2,2,0.4v1.3H0.7C0.3,1.8,0,2.1,0,2.4v10.5
	c0,0.4,0.3,0.7,0.7,0.7H5c0.8,0,1.5,0.3,2,0.9l0.1,0.1c0.1,0.1,0.2,0.2,0.3,0.2c0,0,0.1,0.1,0.1,0.1c0.1,0.1,0.2,0.1,0.2,0.1l0,0
	c0,0,0.1,0,0.1,0.1c0.1,0,0.1,0,0.2,0.1c0,0,0.1,0,0.2,0c0.1,0,0.2,0,0.3,0l0.1,0c0.1,0,0.3,0,0.4,0c0.1,0,0.1,0,0.1,0
	c0.1,0,0.1,0,0.2-0.1l0,0l0.1,0l0,0c0.1,0,0.2-0.1,0.3-0.2l0.1-0.1c0.1-0.1,0.2-0.2,0.3-0.3l0,0l0,0c0.5-0.6,1.2-0.9,1.9-0.9h4.4
	C17,13.6,17.3,13.3,17.3,12.9C17.3,12.9,17.3,12.9,17.3,12.9z"/>
</svg>
