<?xml version="1.0" encoding="utf-8"?>
<!-- Generator: Adobe Illustrator 24.3.0, SVG Export Plug-In . SVG Version: 6.00 Build 0)  -->
<svg version="1.1" id="Layer_1" xmlns="http://www.w3.org/2000/svg" xmlns:xlink="http://www.w3.org/1999/xlink" x="0px" y="0px"
	 viewBox="0 0 39.8 39.8" style="enable-background:new 0 0 39.8 39.8;" xml:space="preserve">
<style type="text/css">
	.st0{fill:#874F9F;}
	.st1{fill:#F6DB12;stroke:#874F9F;stroke-miterlimit:10;}
</style>
<g>
	<g>
		<path class="st0" d="M19.1,6.6v3.6c0,0.5,0.4,0.8,0.8,0.8s0.8-0.4,0.8-0.8V6.6c1.4-0.4,2.5-1.7,2.5-3.2c0-1.8-1.5-3.3-3.3-3.3
			s-3.3,1.5-3.3,3.3C16.6,4.9,17.6,6.2,19.1,6.6z M19.9,1.7c0.9,0,1.7,0.8,1.7,1.7S20.8,5,19.9,5s-1.7-0.8-1.7-1.7S19,1.7,19.9,1.7z
			"/>
		<path class="st0" d="M8.2,11.5c0.6,0,1.2-0.2,1.7-0.5l2.6,2.6c0.2,0.2,0.4,0.3,0.6,0.3c0.2,0,0.4-0.1,0.6-0.3
			c0.3-0.3,0.3-0.8,0-1.2L11,9.9c0.3-0.5,0.5-1.1,0.5-1.7c0-1.8-1.5-3.3-3.3-3.3S4.8,6.4,4.8,8.2S6.4,11.5,8.2,11.5z M8.2,6.5
			c0.9,0,1.7,0.8,1.7,1.7S9.1,9.9,8.2,9.9S6.5,9.1,6.5,8.2S7.3,6.5,8.2,6.5z"/>
		<path class="st0" d="M6.6,20.7h3.6c0.5,0,0.8-0.4,0.8-0.8s-0.4-0.8-0.8-0.8H6.6c-0.4-1.4-1.7-2.5-3.2-2.5c-1.8,0-3.3,1.5-3.3,3.3
			s1.5,3.3,3.3,3.3C4.9,23.2,6.2,22.2,6.6,20.7z M3.4,21.6c-0.9,0-1.7-0.8-1.7-1.7s0.8-1.7,1.7-1.7s1.7,0.8,1.7,1.7
			S4.3,21.6,3.4,21.6z"/>
		<path class="st0" d="M12.5,26.2l-2.6,2.6c-0.5-0.3-1.1-0.5-1.7-0.5c-1.8,0-3.3,1.5-3.3,3.3c0,1.8,1.5,3.3,3.3,3.3s3.3-1.5,3.3-3.3
			c0-0.6-0.2-1.2-0.5-1.7l2.6-2.6c0.3-0.3,0.3-0.8,0-1.2C13.3,25.9,12.8,25.9,12.5,26.2z M8.2,33.3c-0.9,0-1.7-0.8-1.7-1.7
			s0.8-1.7,1.7-1.7s1.7,0.8,1.7,1.7S9.2,33.3,8.2,33.3z"/>
		<path class="st0" d="M20.7,33.2v-3.6c0-0.5-0.4-0.8-0.8-0.8s-0.8,0.4-0.8,0.8v3.6c-1.4,0.4-2.5,1.7-2.5,3.2c0,1.8,1.5,3.3,3.3,3.3
			s3.3-1.5,3.3-3.3C23.2,34.9,22.2,33.6,20.7,33.2z M19.9,38.1c-0.9,0-1.7-0.8-1.7-1.7s0.8-1.7,1.7-1.7s1.7,0.8,1.7,1.7
			S20.8,38.1,19.9,38.1z"/>
		<path class="st0" d="M31.6,28.3c-0.6,0-1.2,0.2-1.7,0.5l-2.6-2.6c-0.3-0.3-0.8-0.3-1.2,0s-0.3,0.8,0,1.2l2.6,2.6
			c-0.3,0.5-0.5,1.1-0.5,1.7c0,1.8,1.5,3.3,3.3,3.3c1.8,0,3.3-1.5,3.3-3.3C34.9,29.8,33.4,28.3,31.6,28.3z M31.6,33.3
			c-0.9,0-1.7-0.8-1.7-1.7s0.8-1.7,1.7-1.7s1.7,0.8,1.7,1.7S32.5,33.3,31.6,33.3z"/>
		<path class="st0" d="M36.4,16.6c-1.5,0-2.8,1.1-3.2,2.5h-3.6c-0.5,0-0.8,0.4-0.8,0.8s0.4,0.8,0.8,0.8h3.6c0.4,1.4,1.7,2.5,3.2,2.5
			c1.8,0,3.3-1.5,3.3-3.3S38.3,16.6,36.4,16.6z M36.4,21.6c-0.9,0-1.7-0.8-1.7-1.7s0.8-1.7,1.7-1.7c0.9,0,1.7,0.8,1.7,1.7
			S37.4,21.6,36.4,21.6z"/>
		<path class="st0" d="M26.8,13.8c0.2,0,0.4-0.1,0.6-0.3l2.6-2.6c0.5,0.3,1.1,0.5,1.7,0.5c1.8,0,3.3-1.5,3.3-3.3s-1.5-3.3-3.3-3.3
			s-3.3,1.5-3.3,3.3c0,0.6,0.2,1.2,0.5,1.7l-2.6,2.6c-0.3,0.3-0.3,0.8,0,1.2C26.3,13.8,26.5,13.8,26.8,13.8z M31.6,6.5
			c0.9,0,1.7,0.8,1.7,1.7s-0.8,1.7-1.7,1.7s-1.7-0.8-1.7-1.7S30.6,6.5,31.6,6.5z"/>
	</g>
	<circle class="st1" cx="19.9" cy="19.9" r="6.6"/>
</g>
</svg>
