<?xml version="1.0" encoding="utf-8"?>
<!-- Generator: Adobe Illustrator 24.3.0, SVG Export Plug-In . SVG Version: 6.00 Build 0)  -->
<svg version="1.1" id="Layer_1" xmlns="http://www.w3.org/2000/svg" xmlns:xlink="http://www.w3.org/1999/xlink" x="0px" y="0px"
	 viewBox="0 0 13.8 17.7" style="enable-background:new 0 0 13.8 17.7;" xml:space="preserve">
<style type="text/css">
	.st0{fill:#9A9B9B;}
</style>
<g>
	<path class="st0" d="M0,10.3l1.3,0l0,5.9h8.8v-5.9h1.4v7.3H0L0,10.3z"/>
	<path class="st0" d="M2.2,13.8h6.9v1.5H2.2V13.8z"/>
	<path class="st0" d="M2.3,11.1l6.9,0.7l-0.1,1.5l-6.9-0.7L2.3,11.1z"/>
	<path class="st0" d="M3,8.1L9.7,10l-0.4,1.5L2.6,9.6L3,8.1z"/>
	<path class="st0" d="M4.6,4.8l6,3.6L9.8,9.6L3.8,6L4.6,4.8z"/>
	<path class="st0" d="M8,1.5L12,7.2l-1.2,0.9L6.8,2.4L8,1.5z"/>
	<path class="st0" d="M12.7,0l1.1,6.9l-1.5,0.2l-1.1-6.9L12.7,0z"/>
</g>
</svg>
