<?xml version="1.0" encoding="utf-8"?>
<!-- Generator: Adobe Illustrator 24.3.0, SVG Export Plug-In . SVG Version: 6.00 Build 0)  -->
<svg version="1.1" id="Layer_1" xmlns="http://www.w3.org/2000/svg" xmlns:xlink="http://www.w3.org/1999/xlink" x="0px" y="0px"
	 viewBox="0 0 327.4 97.4" style="enable-background:new 0 0 327.4 97.4;" xml:space="preserve">
<style type="text/css">
	.st0{fill:#FFFFFF;}
</style>
<g>
	<g>
		<g>
			<polygon class="st0" points="170.8,43.5 128.4,43.5 128.4,50.9 145.5,50.9 145.5,96.3 153.9,96.3 153.9,50.9 170.8,50.9 			"/>
			<path class="st0" d="M178.7,58.8c-1.6,1.1-3.1,2.6-4.4,4.5v-5.8h-7.4v38.6h7.7V79c0-2.3,0.2-4.4,0.6-6.1c0.5-1.8,1.1-3.2,2.1-4.4
				s2.3-2.1,3.9-2.7s3.6-1,6-1h1v-8.1h-0.8C184.1,56.6,181.1,57.4,178.7,58.8z"/>
			<path class="st0" d="M222.9,90.1c-0.8,0-0.8-0.3-1-0.3c-0.2-0.6-0.2-1.6-0.2-2.9V67.7c0-2.3-0.5-4.2-1.3-5.6
				c-0.8-1.5-2.1-2.6-3.6-3.4s-3.1-1.3-4.7-1.6c-3.7-0.5-7.7-0.5-11.1,0.3c-1.9,0.5-3.7,1.1-5.2,2.3c-1.5,1-2.7,2.4-3.7,4
				c-1,1.6-1.5,3.7-1.5,6.1v0.8h7.7v-0.8c0.2-2.4,1-4,2.4-4.8c1.6-1,3.6-1.3,6-1.3c1,0,1.8,0,2.7,0.2c0.8,0.2,1.6,0.3,2.4,0.8
				c0.6,0.3,1.1,0.8,1.6,1.6c0.5,0.6,0.6,1.6,0.6,2.7c0,1-0.2,1.6-0.8,1.9c-0.6,0.5-1.5,1-2.4,1.1c-1.1,0.3-2.4,0.5-3.9,0.6
				s-3.2,0.5-4.8,0.8s-3.2,0.6-4.7,1.1c-1.6,0.5-3.1,1.1-4.2,2.1c-1.3,1-2.3,2.1-3.1,3.6c-0.8,1.5-1.1,3.4-1.1,5.5
				c0,1.9,0.3,3.7,1,5.2c0.6,1.5,1.6,2.6,2.9,3.6c1.1,1,2.6,1.6,4.2,1.9s3.2,0.5,4.8,0.5c2.7,0,5.2-0.5,7.4-1.5
				c1.8-0.6,3.4-1.8,4.8-3.2c0.2,1.3,0.8,2.3,1.5,3.1c1.1,1,2.6,1.6,4.4,1.6c1.9,0,3.6-0.3,4.8-1l0.3-0.2v-6.3l-1.1,0.3
				C223.9,90,223.4,90.1,222.9,90.1z M203.6,90.1c-0.8,0-1.6-0.2-2.6-0.3c-0.8-0.2-1.5-0.5-1.9-0.8c-0.5-0.3-1-0.8-1.3-1.5
				c-0.3-0.5-0.5-1.3-0.5-2.1c0-1.3,0.3-2.4,0.8-3.1c0.6-0.8,1.5-1.5,2.4-1.8c1-0.5,2.3-0.8,3.6-1c1.5-0.2,2.7-0.3,4-0.6
				c1.3-0.2,2.7-0.3,4-0.6c0.8-0.2,1.5-0.3,2.1-0.6v4.8c0,0.8-0.2,1.6-0.6,2.4c-0.3,0.8-1,1.6-1.8,2.4c-0.8,0.8-1.9,1.5-3.2,1.9
				C207.1,89.8,205.5,90.1,203.6,90.1z"/>
			<path class="st0" d="M255.1,81.7c-0.3,2.6-1.3,4.7-2.9,6.1c-1.5,1.5-3.7,2.1-6.5,2.1c-1.8,0-3.2-0.3-4.5-1
				c-1.3-0.6-2.3-1.6-3.1-2.7s-1.5-2.6-1.8-4c-0.3-1.6-0.6-3.2-0.6-4.8c0-1.8,0.2-3.6,0.5-5.2c0.3-1.6,1-3.1,1.8-4.4
				c0.8-1.3,1.9-2.3,3.2-2.9c1.3-0.8,3.1-1.1,5.2-1.1c2.4,0,4.2,0.6,5.6,1.8s2.3,2.9,2.7,5l0.2,0.6h7.9l-0.2-1
				c-0.3-2.3-0.8-4.4-1.8-6c-1-1.6-2.3-3.1-3.7-4.2c-1.5-1.1-3.2-1.9-5.2-2.4c-1.9-0.5-4-0.8-6.1-0.8c-3.1,0-5.6,0.5-8.1,1.6
				c-2.3,1.1-4.2,2.6-5.8,4.5c-1.5,1.9-2.6,4-3.4,6.6c-0.8,2.4-1.1,5.2-1.1,8.1c0,2.9,0.3,5.5,1.1,7.9c0.8,2.4,1.9,4.5,3.4,6.3
				c1.5,1.8,3.4,3.1,5.8,4c2.3,1,4.8,1.5,7.7,1.5c4.8,0,8.9-1.3,11.8-3.9c2.9-2.6,4.7-6.3,5.3-11.1l0.2-1h-7.9L255.1,81.7z"/>
			<path class="st0" d="M298.5,64.3c-1.5-2.3-3.2-4-5.5-5.5c-2.3-1.5-5.2-2.1-8.6-2.1c-2.6,0-5.2,0.5-7.3,1.5
				c-2.3,1-4.2,2.4-5.8,4.2c-1.6,1.8-2.9,3.9-3.7,6.3c-0.8,2.4-1.3,5.2-1.3,8.1c0.2,2.9,0.5,5.6,1.3,8.1c0.8,2.4,1.9,4.7,3.6,6.5
				c1.6,1.8,3.6,3.2,5.8,4.2c2.3,1,5,1.5,8.1,1.5c4.4,0,8.1-1.1,11-3.4l0,0c2.9-2.3,4.8-5.5,5.6-9.8l0.2-1h-7.6l-0.2,0.6
				c-0.5,2.3-1.5,3.9-2.9,5s-3.6,1.6-5.8,1.6c-1.9,0-3.6-0.3-4.8-1s-2.4-1.5-3.4-2.4c-0.8-1-1.5-2.3-1.9-3.6
				c-0.3-1.1-0.5-2.3-0.5-3.6h27.8v-0.8c0.2-2.3-0.2-4.7-0.6-7.3C300.7,69,299.8,66.6,298.5,64.3z M293.6,72.5h-19.5
				c0.2-1,0.3-1.9,0.8-2.9c0.5-1.1,1.1-2.3,1.9-3.1c0.8-0.8,1.8-1.6,3.1-2.1c2.3-1,5.5-1,7.7,0c1.1,0.5,2.3,1.1,3.1,2.1
				c0.8,0.8,1.6,1.9,2.1,3.1C293.3,70.6,293.6,71.6,293.6,72.5z"/>
			<path class="st0" d="M326.7,56.7c-3.4-0.2-6.3,0.6-8.7,2.1c-1.6,1.1-3.1,2.6-4.4,4.5v-5.8h-7.4v38.6h7.7V79
				c0-2.3,0.2-4.4,0.6-6.1c0.5-1.8,1.1-3.2,2.1-4.4c1-1.1,2.3-2.1,3.9-2.7s3.6-1,6-1h0.8v-8.1H326.7z"/>
		</g>
		<g>
			<path class="st0" d="M96,80.5H81.4c-0.5,0-0.9,0.4-0.9,0.9V96c0,0.5,0.4,0.9,0.9,0.9H96c0.5,0,0.9-0.4,0.9-0.9V81.4
				C96.9,80.9,96.5,80.5,96,80.5z"/>
			<path class="st0" d="M42.6,81.4c0-0.5-0.4-0.9-0.9-0.9H28.5c-0.5,0-0.9,0.4-0.9,0.9V96c0,0.5,0.4,0.9,0.9,0.9h13.4
				c0.5,0,0.9-0.4,0.9-0.9c0-0.3-0.1-0.5-0.3-0.7V81.4z"/>
			<path class="st0" d="M68.4,80.5H55.3c-0.5,0-0.9,0.4-0.9,0.9V96c0,0.5,0.4,0.9,0.9,0.9h13.1c0.5,0,0.9-0.4,0.9-0.9V81.4
				C69.3,80.9,68.9,80.5,68.4,80.5z"/>
			<path class="st0" d="M15.5,80.5H0.9c-0.5,0-0.9,0.4-0.9,0.9V96c0,0.5,0.4,0.9,0.9,0.9h14.5c0.5,0,0.9-0.4,0.9-0.9V81.4
				C16.4,80.9,16,80.5,15.5,80.5z"/>
			<path class="st0" d="M15.5,54.3H0.9c-0.5,0-0.9,0.4-0.9,0.9v13.1c0,0.5,0.4,0.9,0.9,0.9h14.5c0.5,0,0.9-0.4,0.9-0.9V55.3
				C16.4,54.8,16,54.3,15.5,54.3z"/>
			<path class="st0" d="M15.5,27.6H0.9C0.4,27.6,0,28,0,28.5v13.4c0,0.5,0.4,0.9,0.9,0.9h14.5c0.5,0,0.9-0.4,0.9-0.9V28.5
				C16.4,28,16,27.6,15.5,27.6z"/>
			<path class="st0" d="M15.5,0H0.9C0.4,0,0,0.4,0,0.9v14.5c0,0.5,0.4,0.9,0.9,0.9h14.5c0.5,0,0.9-0.4,0.9-0.9V0.9
				C16.4,0.4,16,0,15.5,0z"/>
			<path class="st0" d="M55.3,16.4h13.1c0.5,0,0.9-0.4,0.9-0.9V0.9c0-0.5-0.4-0.9-0.9-0.9H55.3c-0.5,0-0.9,0.4-0.9,0.9v14.5
				C54.3,16,54.8,16.4,55.3,16.4z"/>
			<path class="st0" d="M42.6,0.9c0-0.5-0.4-0.9-0.9-0.9H28.5c-0.5,0-0.9,0.4-0.9,0.9v14.5c0,0.5,0.4,0.9,0.9,0.9h13.4
				c0.5,0,0.9-0.4,0.9-0.9c0-0.3-0.1-0.5-0.3-0.7V0.9z"/>
			<path class="st0" d="M81.4,16.4H96c0.5,0,0.9-0.4,0.9-0.9V0.9C96.9,0.4,96.5,0,96,0H81.4c-0.5,0-0.9,0.4-0.9,0.9v14.5
				C80.5,16,80.9,16.4,81.4,16.4z"/>
			<path class="st0" d="M88.7,27.9C77.3,27.9,68,37.2,68,48.6s9.3,20.7,20.7,20.7s20.7-9.3,20.7-20.7S100.1,27.9,88.7,27.9z"/>
		</g>
		<g>
			<path class="st0" d="M140.9,0c5.6,0,9.9,1.4,13,4.3c3,2.9,4.5,7.2,4.5,13.1c0,3.1-0.3,5.8-1,8.1c-0.7,2.4-1.7,4.4-3.2,6
				c-1.4,1.6-3.3,2.9-5.5,3.7c-2.2,0.9-4.8,1.3-7.9,1.3h-12.5V0H140.9z M141.3,32.4c0.5,0,1.2,0,2-0.1c0.8-0.1,1.7-0.3,2.6-0.6
				c0.9-0.3,1.8-0.8,2.7-1.4c0.9-0.6,1.7-1.4,2.4-2.5c0.7-1.1,1.3-2.4,1.8-4c0.5-1.6,0.7-3.5,0.7-5.7c0-2.2-0.2-4.1-0.6-5.8
				c-0.4-1.7-1.1-3.2-2.1-4.4c-1-1.2-2.2-2.1-3.8-2.8c-1.5-0.6-3.4-0.9-5.7-0.9h-8.2v28.3H141.3z"/>
			<path class="st0" d="M183.9,37c-1.1,0-2-0.3-2.7-0.9c-0.7-0.6-1-1.7-1-3.1c-1.2,1.4-2.6,2.5-4.2,3.1c-1.6,0.6-3.3,0.9-5.1,0.9
				c-1.2,0-2.3-0.1-3.4-0.4c-1.1-0.3-2-0.7-2.8-1.3c-0.8-0.6-1.4-1.4-1.9-2.3c-0.5-0.9-0.7-2.1-0.7-3.4c0-1.5,0.3-2.7,0.8-3.7
				c0.5-1,1.2-1.7,2-2.3c0.8-0.6,1.8-1,2.9-1.4c1.1-0.3,2.2-0.6,3.3-0.8c1.2-0.2,2.3-0.4,3.4-0.5c1.1-0.1,2-0.3,2.8-0.5
				c0.8-0.2,1.5-0.5,1.9-1c0.5-0.4,0.7-1,0.7-1.9c0-1-0.2-1.7-0.5-2.3c-0.4-0.6-0.8-1-1.4-1.3c-0.6-0.3-1.2-0.5-1.9-0.6
				c-0.7-0.1-1.4-0.2-2.1-0.2c-1.8,0-3.4,0.3-4.6,1c-1.2,0.7-1.9,2-2,4h-4.3c0.1-1.6,0.4-3,1-4.1c0.6-1.1,1.4-2,2.5-2.7
				c1-0.7,2.2-1.2,3.5-1.5c1.3-0.3,2.7-0.5,4.2-0.5c1.2,0,2.4,0.1,3.6,0.3c1.2,0.2,2.2,0.5,3.2,1c1,0.5,1.7,1.3,2.3,2.2
				c0.6,1,0.9,2.2,0.9,3.7v13.6c0,1,0.1,1.8,0.2,2.2c0.1,0.5,0.5,0.7,1.2,0.7c0.4,0,0.8-0.1,1.3-0.3v3.4
				C186.3,36.8,185.2,37,183.9,37z M177.8,23.7c-0.9,0.2-1.8,0.3-2.8,0.5c-1,0.1-2,0.3-2.9,0.4c-1,0.2-1.9,0.4-2.7,0.7
				c-0.8,0.3-1.4,0.8-1.9,1.5c-0.5,0.6-0.7,1.5-0.7,2.6c0,0.7,0.1,1.3,0.4,1.8c0.3,0.5,0.7,0.9,1.1,1.2c0.5,0.3,1,0.5,1.6,0.7
				c0.6,0.1,1.3,0.2,1.9,0.2c1.4,0,2.7-0.2,3.7-0.6c1-0.4,1.9-0.9,2.5-1.5s1.1-1.2,1.4-1.9c0.3-0.7,0.5-1.4,0.5-2v-4.4
				C179.4,23.2,178.7,23.5,177.8,23.7z"/>
			<path class="st0" d="M202.4,10.1v3.8h-5.3v16.4c0,0.5,0,0.9,0.1,1.2c0.1,0.3,0.2,0.5,0.5,0.7c0.2,0.2,0.6,0.3,1,0.3
				c0.4,0.1,1,0.1,1.7,0.1h2v3.8H199c-1.1,0-2.1-0.1-2.9-0.2c-0.8-0.2-1.4-0.4-1.9-0.8c-0.5-0.4-0.9-1-1.1-1.7
				c-0.2-0.7-0.4-1.7-0.4-3V13.9h-4.5v-3.8h4.5V2.1h4.3v7.9H202.4z"/>
			<path class="st0" d="M227.4,37c-1.1,0-2-0.3-2.7-0.9c-0.7-0.6-1-1.7-1-3.1c-1.2,1.4-2.6,2.5-4.2,3.1c-1.6,0.6-3.3,0.9-5.1,0.9
				c-1.2,0-2.3-0.1-3.4-0.4c-1.1-0.3-2-0.7-2.8-1.3c-0.8-0.6-1.4-1.4-1.9-2.3s-0.7-2.1-0.7-3.4c0-1.5,0.3-2.7,0.8-3.7
				c0.5-1,1.2-1.7,2-2.3c0.8-0.6,1.8-1,2.9-1.4c1.1-0.3,2.2-0.6,3.3-0.8c1.2-0.2,2.3-0.4,3.4-0.5c1.1-0.1,2-0.3,2.8-0.5
				c0.8-0.2,1.5-0.5,1.9-1c0.5-0.4,0.7-1,0.7-1.9c0-1-0.2-1.7-0.5-2.3c-0.4-0.6-0.8-1-1.4-1.3c-0.6-0.3-1.2-0.5-1.9-0.6
				c-0.7-0.1-1.4-0.2-2.1-0.2c-1.8,0-3.4,0.3-4.6,1c-1.2,0.7-1.9,2-2,4h-4.3c0.1-1.6,0.4-3,1-4.1c0.6-1.1,1.4-2,2.5-2.7
				c1-0.7,2.2-1.2,3.5-1.5c1.3-0.3,2.7-0.5,4.2-0.5c1.2,0,2.4,0.1,3.6,0.3c1.2,0.2,2.2,0.5,3.2,1c1,0.5,1.7,1.3,2.3,2.2
				c0.6,1,0.9,2.2,0.9,3.7v13.6c0,1,0.1,1.8,0.2,2.2c0.1,0.5,0.5,0.7,1.2,0.7c0.4,0,0.8-0.1,1.3-0.3v3.4
				C229.8,36.8,228.8,37,227.4,37z M221.4,23.7c-0.9,0.2-1.8,0.3-2.8,0.5c-1,0.1-2,0.3-2.9,0.4c-1,0.2-1.9,0.4-2.7,0.7
				c-0.8,0.3-1.4,0.8-1.9,1.5c-0.5,0.6-0.7,1.5-0.7,2.6c0,0.7,0.1,1.3,0.4,1.8c0.3,0.5,0.7,0.9,1.1,1.2c0.5,0.3,1,0.5,1.6,0.7
				c0.6,0.1,1.3,0.2,1.9,0.2c1.4,0,2.7-0.2,3.7-0.6c1-0.4,1.9-0.9,2.5-1.5c0.6-0.6,1.1-1.2,1.4-1.9c0.3-0.7,0.5-1.4,0.5-2v-4.4
				C223,23.2,222.2,23.5,221.4,23.7z"/>
		</g>
	</g>
</g>
</svg>
