<?xml version="1.0" encoding="utf-8"?>
<!-- Generator: Adobe Illustrator 24.3.0, SVG Export Plug-In . SVG Version: 6.00 Build 0)  -->
<svg version="1.1" id="Layer_1" xmlns="http://www.w3.org/2000/svg" xmlns:xlink="http://www.w3.org/1999/xlink" x="0px" y="0px"
	 viewBox="0 0 17.3 16.9" style="enable-background:new 0 0 17.3 16.9;" xml:space="preserve">
<style type="text/css">
	.st0{fill-rule:evenodd;clip-rule:evenodd;fill:#9A9B9B;}
</style>
<path class="st0" d="M8.6,0C3.9,0,0,3.9,0,8.6c0,3.8,2.5,7.1,5.9,8.2c0.4,0.1,0.6-0.2,0.6-0.4c0-0.2,0-0.7,0-1.5
	c-2.4,0.5-2.9-1.2-2.9-1.2c-0.4-1-1-1.3-1-1.3C1.8,12,2.7,12,2.7,12C3.5,12.1,4,12.9,4,12.9c0.8,1.3,2,0.9,2.5,0.7
	c0.1-0.6,0.3-0.9,0.5-1.2c-1.9-0.2-3.9-1-3.9-4.3c0-0.9,0.3-1.7,0.9-2.3C3.9,5.7,3.6,4.8,4.1,3.6c0,0,0.7-0.2,2.4,0.9
	c0.7-0.2,1.4-0.3,2.2-0.3c0.7,0,1.5,0.1,2.2,0.3c1.6-1.1,2.4-0.9,2.4-0.9c0.5,1.2,0.2,2.1,0.1,2.3c0.6,0.6,0.9,1.4,0.9,2.3
	c0,3.3-2,4-3.9,4.3c0.3,0.3,0.6,0.8,0.6,1.6c0,1.2,0,2.1,0,2.4c0,0.2,0.2,0.5,0.6,0.4c3.4-1.1,5.9-4.4,5.9-8.2
	C17.3,3.9,13.4,0,8.6,0z"/>
</svg>
