<?xml version="1.0" encoding="utf-8"?>
<!-- Generator: Adobe Illustrator 24.3.0, SVG Export Plug-In . SVG Version: 6.00 Build 0)  -->
<svg version="1.1" id="Layer_1" xmlns="http://www.w3.org/2000/svg" xmlns:xlink="http://www.w3.org/1999/xlink" x="0px" y="0px"
	 viewBox="0 0 17.3 17.3" style="enable-background:new 0 0 17.3 17.3;" xml:space="preserve">
<style type="text/css">
	.st0{fill:#9A9B9B;}
</style>
<g>
	<path class="st0" d="M2.3,8.6c0.4-0.4,1-0.4,1.4,0c0.4,0.4,0.4,1,0,1.4l-1.3,1.3C1.8,12,1.8,13.2,2.6,14l0.7,0.7
		c0.8,0.8,2,0.8,2.7,0.2L9.9,11c0.7-0.7,0.6-1.9-0.2-2.7c-0.4-0.4-0.4-1,0-1.4c0.4-0.4,1-0.4,1.4,0c1.5,1.6,1.7,4,0.2,5.5l-3.9,3.9
		c-1.5,1.5-3.9,1.4-5.5-0.2l-0.7-0.7c-1.6-1.6-1.7-4-0.2-5.5L2.3,8.6z M15.3,8.4c-0.4,0.4-1,0.4-1.4,0c-0.4-0.4-0.4-1,0-1.4L14.9,6
		c0.7-0.7,0.6-1.9-0.2-2.7L14,2.6c-0.8-0.8-2-0.8-2.7-0.2L7.4,6.4C6.8,7,6.8,8.2,7.6,9c0.4,0.4,0.4,1,0,1.4c-0.4,0.4-1,0.4-1.4,0
		C4.6,8.9,4.5,6.4,6,4.9l3.9-3.9c1.5-1.5,3.9-1.4,5.5,0.2l0.7,0.7c1.6,1.6,1.7,4,0.2,5.5L15.3,8.4z"/>
</g>
</svg>
