<?xml version="1.0" encoding="utf-8"?>
<!-- Generator: Adobe Illustrator 24.3.0, SVG Export Plug-In . SVG Version: 6.00 Build 0)  -->
<svg version="1.1" id="Layer_1" xmlns="http://www.w3.org/2000/svg" xmlns:xlink="http://www.w3.org/1999/xlink" x="0px" y="0px"
	 viewBox="0 0 17.8 17.8" style="enable-background:new 0 0 17.8 17.8;" xml:space="preserve">
<style type="text/css">
	.st0{fill-rule:evenodd;clip-rule:evenodd;fill:#9A9B9B;}
</style>
<g>
	<path class="st0" d="M6.5,0c-1,0-1.8,0.8-1.8,1.8c0,1,0.8,1.8,1.8,1.8h1.8V1.8C8.3,0.8,7.5,0,6.5,0C6.5,0,6.5,0,6.5,0 M6.5,4.8H1.8
		C0.8,4.8,0,5.6,0,6.5c0,1,0.8,1.8,1.8,1.8h4.7c1,0,1.8-0.8,1.8-1.8C8.3,5.6,7.5,4.8,6.5,4.8L6.5,4.8z"/>
	<path class="st0" d="M17.8,6.5c0-1-0.8-1.8-1.8-1.8c-1,0-1.8,0.8-1.8,1.8v1.8H16C17,8.3,17.8,7.5,17.8,6.5z M13.1,6.5V1.8
		c0-1-0.8-1.8-1.8-1.8c-1,0-1.8,0.8-1.8,1.8v4.8c0,1,0.8,1.8,1.8,1.8C12.3,8.3,13.1,7.5,13.1,6.5z"/>
	<path class="st0" d="M11.3,17.8c1,0,1.8-0.8,1.8-1.8c0-1-0.8-1.8-1.8-1.8H9.5v1.8C9.5,17,10.3,17.8,11.3,17.8z M11.3,13.1H16
		c1,0,1.8-0.8,1.8-1.8c0-1-0.8-1.8-1.8-1.8h-4.7c-1,0-1.8,0.8-1.8,1.8C9.5,12.3,10.3,13.1,11.3,13.1L11.3,13.1z"/>
	<path class="st0" d="M0,11.3c0,1,0.8,1.8,1.8,1.8c1,0,1.8-0.8,1.8-1.8V9.5H1.8C0.8,9.5,0,10.3,0,11.3z M4.7,11.3v4.8
		c0,1,0.8,1.8,1.8,1.8c1,0,1.8-0.8,1.8-1.8v-4.8c0-1-0.8-1.8-1.8-1.8C5.5,9.5,4.7,10.3,4.7,11.3C4.7,11.3,4.7,11.3,4.7,11.3"/>
</g>
</svg>
