<?xml version="1.0" encoding="utf-8"?>
<!-- Generator: Adobe Illustrator 24.3.0, SVG Export Plug-In . SVG Version: 6.00 Build 0)  -->
<svg version="1.1" id="Layer_1" xmlns="http://www.w3.org/2000/svg" xmlns:xlink="http://www.w3.org/1999/xlink" x="0px" y="0px"
	 viewBox="0 0 284.6 168.5" style="enable-background:new 0 0 284.6 168.5;" xml:space="preserve">
<style type="text/css">
	.st0{opacity:0.65;}
	.st1{fill:#0E223D;}
	.st2{font-family:'HelveticaNeue';}
	.st3{font-size:17.6014px;}
	.st4{fill:none;stroke:#7D4D4B;stroke-width:1.1201;stroke-miterlimit:10;}
	.st5{fill:#7D4D4B;}
	.st6{opacity:0.83;fill:#828D9E;enable-background:new    ;}
	.st7{fill:#FFFFFF;}
	.st8{font-size:16.0012px;}
	.st9{fill:#1B345D;}
	.st10{font-size:14.4011px;}
	.st11{fill:none;stroke:#19335D;stroke-width:1.0754;stroke-miterlimit:10;}
	.st12{fill:none;stroke:#19335D;stroke-width:2.4002;stroke-miterlimit:10;}
	.st13{fill:none;stroke:#19335D;stroke-width:0.8001;stroke-miterlimit:10;}
	.st14{fill:none;stroke:#19335D;stroke-width:0.48;stroke-miterlimit:10;}
</style>
<g class="st0">
	<g>
		<text transform="matrix(1 0 0 1 115.1801 15.0837)" class="st1 st2 st3">Map column</text>
	</g>
	<g>
		<g>
			<path class="st4" d="M72.1,43V30.6c0-1.9,1.6-3.5,3.5-3.5H253c1.9,0,3.5,1.6,3.5,3.5v9.1"/>
			<g>
				<polygon class="st5" points="250.8,38.1 256.4,47.8 262,38.1 				"/>
			</g>
		</g>
	</g>
	<path class="st4" d="M131.7,43V30.6c0-1.9,1.6-3.5,3.5-3.5"/>
	<rect x="0.1" y="57.7" class="st6" width="163.2" height="32.3"/>
	<g>
		<text transform="matrix(1 0 0 1 9.4086 79.363)" class="st7 st2 st8">Key</text>
	</g>
	<g>
		<text transform="matrix(1 0 0 1 19.0473 108.5662)" class="st9 st2 st10">1</text>
		<text transform="matrix(1 0 0 1 19.0473 134.1662)" class="st9 st2 st10">2</text>
		<text transform="matrix(1 0 0 1 19.0473 159.7662)" class="st9 st2 st10">3</text>
	</g>
	<g>
		<text transform="matrix(1 0 0 1 60.3373 108.324)" class="st9 st2 st10">100</text>
		<text transform="matrix(1 0 0 1 64.3373 133.924)" class="st9 st2 st10">50</text>
		<text transform="matrix(1 0 0 1 68.3373 159.524)" class="st9 st2 st10">0</text>
	</g>
	<g>
		<text transform="matrix(1 0 0 1 119.7084 108.324)" class="st9 st2 st10">200</text>
		<text transform="matrix(1 0 0 1 119.7084 133.924)" class="st9 st2 st10">150</text>
		<text transform="matrix(1 0 0 1 119.7084 159.524)" class="st9 st2 st10">100</text>
	</g>
	<g>
		<text transform="matrix(1 0 0 1 48.5268 79.363)" class="st7 st2 st8">Cost 1</text>
	</g>
	<g>
		<text transform="matrix(1 0 0 1 108.1342 79.363)" class="st7 st2 st8">Cost 2</text>
	</g>
	<rect x="0.5" y="57.7" class="st11" width="162.8" height="110.2"/>
	<line class="st12" x1="1" y1="90.1" x2="163.3" y2="90.1"/>
	<line class="st13" x1="45.1" y1="167.9" x2="45.1" y2="57.7"/>
	<line class="st13" x1="101.5" y1="167.9" x2="101.5" y2="57.7"/>
	<line class="st14" x1="0.5" y1="115.3" x2="163.3" y2="115.3"/>
	<line class="st14" x1="0.5" y1="141.6" x2="163.3" y2="141.6"/>
	<line class="st14" x1="0.5" y1="167.9" x2="163.3" y2="167.9"/>
	<line class="st14" x1="0.5" y1="167.9" x2="163.3" y2="167.9"/>
	<rect x="183.6" y="57.7" class="st6" width="100.4" height="32.3"/>
	<g>
		<text transform="matrix(1 0 0 1 192.8949 79.363)" class="st7 st2 st8">Key</text>
	</g>
	<g>
		<text transform="matrix(1 0 0 1 202.5336 108.6853)" class="st9 st2 st10">3</text>
		<text transform="matrix(1 0 0 1 202.5336 134.2853)" class="st9 st2 st10">2</text>
		<text transform="matrix(1 0 0 1 202.5336 159.8853)" class="st9 st2 st10">1</text>
	</g>
	<g>
		<text transform="matrix(1 0 0 1 244.4408 108.4451)" class="st9 st2 st10">100</text>
		<text transform="matrix(1 0 0 1 244.4408 134.0451)" class="st9 st2 st10">300</text>
		<text transform="matrix(1 0 0 1 244.4408 159.6451)" class="st9 st2 st10">200</text>
	</g>
	<g>
		<text transform="matrix(1 0 0 1 238.4146 79.363)" class="st7 st2 st8">Total</text>
	</g>
	<rect x="184" y="57.7" class="st11" width="100" height="110.2"/>
	<line class="st12" x1="184.5" y1="90.1" x2="284" y2="90.1"/>
	<line class="st13" x1="228.6" y1="167.9" x2="228.6" y2="57.7"/>
	<line class="st14" x1="184" y1="115.3" x2="284" y2="115.3"/>
	<line class="st14" x1="184" y1="141.6" x2="284" y2="141.6"/>
	<line class="st14" x1="184" y1="167.9" x2="284" y2="167.9"/>
	<line class="st14" x1="184" y1="167.9" x2="284" y2="167.9"/>
</g>
</svg>
